<?xml version="1.0" encoding="UTF-8" standalone="no"?>
<!-- Created with Inkscape (http://www.inkscape.org/) -->

<svg
   xmlns:dc="http://purl.org/dc/elements/1.1/"
   xmlns:cc="http://creativecommons.org/ns#"
   xmlns:rdf="http://www.w3.org/1999/02/22-rdf-syntax-ns#"
   xmlns:svg="http://www.w3.org/2000/svg"
   xmlns="http://www.w3.org/2000/svg"
   xmlns:sodipodi="http://sodipodi.sourceforge.net/DTD/sodipodi-0.dtd"
   xmlns:inkscape="http://www.inkscape.org/namespaces/inkscape"
   width="28.255844mm"
   height="50mm"
   viewBox="0 0 28.255844 50"
   version="1.1"
   id="svg6060"
   inkscape:version="0.92.3 (2405546, 2018-03-11)"
   sodipodi:docname="cat.svg">
  <defs
     id="defs6054" />
  <sodipodi:namedview
     id="base"
     pagecolor="#ffffff"
     bordercolor="#666666"
     borderopacity="1.0"
     inkscape:pageopacity="0.0"
     inkscape:pageshadow="2"
     inkscape:zoom="0.35"
     inkscape:cx="628.61227"
     inkscape:cy="-162.10084"
     inkscape:document-units="mm"
     inkscape:current-layer="layer1"
     showgrid="false"
     inkscape:window-width="1920"
     inkscape:window-height="1017"
     inkscape:window-x="-8"
     inkscape:window-y="-8"
     inkscape:window-maximized="1" />
  <metadata
     id="metadata6057">
    <rdf:RDF>
      <cc:Work
         rdf:about="">
        <dc:format>image/svg+xml</dc:format>
        <dc:type
           rdf:resource="http://purl.org/dc/dcmitype/StillImage" />
        <dc:title></dc:title>
      </cc:Work>
    </rdf:RDF>
  </metadata>
  <g
     inkscape:label="Layer 1"
     inkscape:groupmode="layer"
     id="layer1"
     transform="translate(183.32926,-55.944151)">
    <g
       id="g5592"
       transform="matrix(1.0845985,0,0,1.0845985,-335.5296,-112.81905)">
      <path
         sodipodi:nodetypes="sssssssssssss"
         inkscape:connector-curvature="0"
         id="rect4863"
         d="m 166.33406,178.53844 c -0.10818,-0.37757 -0.42598,-1.06093 -0.61269,-1.36524 -0.43587,-0.71044 -1.52782,-0.39403 -1.73194,-0.32481 -0.46338,0.15713 -3.24582,0.74878 -4.93671,4.35153 -1.67318,3.565 3.27909,7.96381 1.97417,10.69849 -1.36376,2.85798 -7.38271,1.0095 -7.38271,1.0095 -0.21411,0.0252 -0.24088,0.62276 -0.34106,0.4319 -0.31777,-0.60541 0.52763,2.82774 0.62893,3.68909 0.0252,0.21411 0.21782,0.3662 0.4319,0.34106 0,0 8.40253,0.67219 10.11281,-3.54459 1.65463,-4.07964 -2.78005,-8.76787 -1.90917,-11.29977 0.58894,-1.71222 2.44826,-2.2519 3.05165,-2.51522 0.43002,-0.18767 0.91523,-0.7724 0.71482,-1.47194 z"
         style="fill:#e9ba92;fill-opacity:1;stroke-width:0.25739616" />
      <circle
         transform="scale(-1,1)"
         r="8.2691059"
         cy="166.58693"
         cx="-149.99875"
         id="path995"
         style="fill:#e9ba92;fill-opacity:1;stroke-width:0.2503117" />
      <ellipse
         transform="scale(-1,1)"
         ry="9.1007938"
         rx="8.8105927"
         cy="191.67871"
         cx="-150.22858"
         id="path999"
         style="fill:#dba97f;fill-opacity:1;stroke-width:0.24613512" />
      <path
         transform="scale(-1,1)"
         d="m -148.07268,200.68849 a 2.946058,2.9435079 0 0 1 2.94606,-2.94351 2.946058,2.9435079 0 0 1 2.94606,2.94351 h -2.94606 z"
         sodipodi:end="0"
         sodipodi:start="3.1415927"
         sodipodi:ry="2.9435079"
         sodipodi:rx="2.946058"
         sodipodi:cy="200.68849"
         sodipodi:cx="-145.12662"
         sodipodi:type="arc"
         id="path2293-3-5-3-2"
         style="fill:#dba97f;fill-opacity:1;stroke:none;stroke-width:0.04012528;stroke-linecap:round;stroke-linejoin:round;stroke-miterlimit:4;stroke-dasharray:none;stroke-dashoffset:0;stroke-opacity:1" />
      <path
         transform="scale(-1,1)"
         d="m -158.18467,200.6422 a 2.946058,2.9435079 0 0 1 2.94605,-2.94351 2.946058,2.9435079 0 0 1 2.94606,2.94351 h -2.94606 z"
         sodipodi:end="0"
         sodipodi:start="3.1415927"
         sodipodi:ry="2.9435079"
         sodipodi:rx="2.946058"
         sodipodi:cy="200.6422"
         sodipodi:cx="-155.23862"
         sodipodi:type="arc"
         id="path2293-3-5-3"
         style="fill:#dba97f;fill-opacity:1;stroke:none;stroke-width:0.04012528;stroke-linecap:round;stroke-linejoin:round;stroke-miterlimit:4;stroke-dasharray:none;stroke-dashoffset:0;stroke-opacity:1" />
      <path
         sodipodi:nodetypes="scscs"
         inkscape:connector-curvature="0"
         id="path997"
         d="m 144.09039,186.56887 c 0.45964,4.08592 1.99907,13.84294 5.90836,13.84294 3.90929,0 5.84662,-10.20088 6.16836,-14.10294 0.63416,-7.69093 -2.25907,-13.84294 -6.16836,-13.84294 -3.90929,0 -6.77103,6.43427 -5.90836,14.10294 z"
         style="fill:#e9ba92;fill-opacity:1;stroke-width:0.25930864" />
      <path
         sodipodi:nodetypes="ccccc"
         inkscape:connector-curvature="0"
         id="path2143-3-8-0"
         d="m 141.56856,155.5997 c 1.88038,0.44283 6.22504,3.05869 6.47004,4.94545 0.0994,1.72325 -2.57087,3.58248 -2.57087,3.58248 0,0 -3.00612,0.74406 -4.24089,-0.45853 -1.69161,-2.68617 -0.51338,-6.28041 0.34172,-8.0694 z"
         inkscape:transform-center-y="-1.0678363"
         inkscape:transform-center-x="-0.22455679"
         style="fill:#e9ba92;fill-opacity:1;stroke:none;stroke-width:0.04545928;stroke-linecap:round;stroke-linejoin:round;stroke-miterlimit:4;stroke-dasharray:none;stroke-dashoffset:0;stroke-opacity:1" />
      <path
         sodipodi:nodetypes="ccccc"
         inkscape:connector-curvature="0"
         id="path2143-3-8-3-1"
         d="m 158.41603,155.80196 c 0.76596,1.80055 1.23557,6.91574 -0.15777,8.24706 -1.34711,1.11444 -4.46602,0.0492 -4.46602,0.0492 0,0 -2.40986,-2.00787 -2.16849,-3.73694 1.17855,-2.99154 4.81913,-4.18479 6.79228,-4.55941 z"
         inkscape:transform-center-y="-1.2330715"
         inkscape:transform-center-x="-0.33544547"
         style="fill:#e9ba92;fill-opacity:1;stroke:none;stroke-width:0.04604482;stroke-linecap:round;stroke-linejoin:round;stroke-miterlimit:4;stroke-dasharray:none;stroke-dashoffset:0;stroke-opacity:1" />
      <ellipse
         transform="scale(-1,1)"
         ry="3.0795617"
         rx="3.6311245"
         cy="169.57022"
         cx="-149.99875"
         id="path4734"
         style="fill:#f0d0b5;fill-opacity:1;stroke-width:0.25739616" />
      <path
         transform="matrix(-0.93830395,-0.34581165,-0.34581165,0.93830395,0,0)"
         d="m -195.56038,105.55408 a 1.10504,2.1125765 0 0 1 1.10504,-2.11258 1.10504,2.1125765 0 0 1 1.10504,2.11258 h -1.10504 z"
         sodipodi:end="0"
         sodipodi:start="3.1415927"
         sodipodi:ry="2.1125765"
         sodipodi:rx="1.10504"
         sodipodi:cy="105.55408"
         sodipodi:cx="-194.45534"
         sodipodi:type="arc"
         id="path2229-4-4"
         style="fill:#a25e25;fill-opacity:1;stroke:none;stroke-width:0.0486418;stroke-linecap:round;stroke-linejoin:round;stroke-miterlimit:4;stroke-dasharray:none;stroke-dashoffset:0;stroke-opacity:1" />
      <path
         transform="matrix(-0.50949267,0.09347624,0.10519049,0.45275441,156.7296,61.454617)"
         inkscape:transform-center-y="0.19426619"
         inkscape:transform-center-x="0.054497075"
         d="m 59.863055,225.74677 c -0.467052,0.10275 -1.518844,-0.80212 -1.841355,-1.15522 -0.322512,-0.3531 -1.128618,-1.48237 -0.984077,-1.93822 0.144541,-0.45586 1.454072,-0.9143 1.921124,-1.01706 0.467052,-0.10275 1.848077,-0.23622 2.170589,0.11688 0.322511,0.3531 0.06477,1.71641 -0.07977,2.17227 -0.144541,0.45585 -0.71946,1.71859 -1.186512,1.82135 z"
         inkscape:randomized="0"
         inkscape:rounded="0.22"
         inkscape:flatsided="false"
         sodipodi:arg2="2.4014436"
         sodipodi:arg1="1.354246"
         sodipodi:r2="1.7899451"
         sodipodi:r1="2.4188447"
         sodipodi:cy="223.38441"
         sodipodi:cx="59.343338"
         sodipodi:sides="3"
         id="path2225-8"
         style="fill:#ff54e0;fill-opacity:1;stroke:none;stroke-width:0.05;stroke-linecap:round;stroke-linejoin:round;stroke-miterlimit:4;stroke-dasharray:none;stroke-dashoffset:0;stroke-opacity:1"
         sodipodi:type="star" />
      <path
         sodipodi:nodetypes="csssssssc"
         inkscape:connector-curvature="0"
         id="rect4844"
         d="m 150.12833,186.15478 c -1.09108,0.003 -1.09356,1.0154 -1.09558,1.27576 -0.0405,5.23966 0.82277,13.12168 0.82277,13.12168 0.0146,0.20193 0.38242,0.4162 0.24877,0.36655 l -0.23309,-0.0866 c -0.13363,-0.0497 0.23043,-0.1653 0.24877,-0.36655 0,0 1.06765,-7.54992 1.02848,-12.99178 -0.002,-0.20306 0.0282,-1.32196 -1.02012,-1.31907 z"
         style="fill:#dba97f;fill-opacity:1;stroke-width:0.1997439" />
      <path
         transform="scale(-1,1)"
         d="m -154.41565,201.69971 a 2.3025677,2.9435079 0 0 1 2.30257,-2.94351 2.3025677,2.9435079 0 0 1 2.30256,2.94351 h -2.30256 z"
         sodipodi:end="0"
         sodipodi:start="3.1415927"
         sodipodi:ry="2.9435079"
         sodipodi:rx="2.3025677"
         sodipodi:cy="201.69971"
         sodipodi:cx="-152.11308"
         sodipodi:type="arc"
         id="path2293-3-5-3-7"
         style="fill:#e9ba92;fill-opacity:1;stroke:none;stroke-width:0.03547347;stroke-linecap:round;stroke-linejoin:round;stroke-miterlimit:4;stroke-dasharray:none;stroke-dashoffset:0;stroke-opacity:1" />
      <path
         transform="scale(-1,1)"
         d="m -150.18698,201.69971 a 2.3025677,2.9435079 0 0 1 2.30257,-2.94351 2.3025677,2.9435079 0 0 1 2.30256,2.94351 h -2.30256 z"
         sodipodi:end="0"
         sodipodi:start="3.1415927"
         sodipodi:ry="2.9435079"
         sodipodi:rx="2.3025677"
         sodipodi:cy="201.69971"
         sodipodi:cx="-147.88441"
         sodipodi:type="arc"
         id="path2293-3-5-3-7-7"
         style="fill:#e9ba92;fill-opacity:1;stroke:none;stroke-width:0.03547347;stroke-linecap:round;stroke-linejoin:round;stroke-miterlimit:4;stroke-dasharray:none;stroke-dashoffset:0;stroke-opacity:1" />
      <path
         sodipodi:nodetypes="cccsssc"
         inkscape:connector-curvature="0"
         id="rect4844-7"
         d="m 145.49648,178.1832 c -0.006,-2.57923 2.2629,-3.77119 2.2629,-3.77119 1.27952,0.22115 3.03995,0.19843 4.18902,-0.0686 0,0 2.33928,1.1097 2.32086,3.78612 -0.0141,2.04939 -3.13665,6.38459 -4.21035,6.39781 -0.97311,0.012 -4.55723,-4.14305 -4.56243,-6.34409 z"
         style="fill:#f0d0b5;fill-opacity:1;stroke-width:0.37610695" />
      <path
         sodipodi:nodetypes="ccccc"
         inkscape:connector-curvature="0"
         id="path2143-3-8-5"
         d="m 141.92589,156.74638 c 1.27938,0.34443 3.94291,1.85897 4.1096,3.32644 -1.97986,0.9828 -3.37423,3.1764 -3.37423,3.1764 0,0 -0.48526,0.4162 -0.96788,-0.22663 -1.15093,-2.08926 -0.34928,-4.88477 0.23251,-6.27621 z"
         inkscape:transform-center-y="-0.83053966"
         inkscape:transform-center-x="-0.1527831"
         style="fill:#f0d0b5;fill-opacity:1;stroke:none;stroke-width:0.03306947;stroke-linecap:round;stroke-linejoin:round;stroke-miterlimit:4;stroke-dasharray:none;stroke-dashoffset:0;stroke-opacity:1" />
      <path
         sodipodi:nodetypes="ccccc"
         inkscape:connector-curvature="0"
         id="path2143-3-8-5-7"
         d="m 157.91936,156.75055 c -1.27937,0.34442 -3.9429,1.85896 -4.10959,3.32643 1.97986,0.9828 3.37423,3.1764 3.37423,3.1764 0,0 0.48526,0.4162 0.96787,-0.22663 1.15094,-2.08925 0.34929,-4.88477 -0.23251,-6.2762 z"
         inkscape:transform-center-y="-0.83053966"
         inkscape:transform-center-x="0.15278493"
         style="fill:#f0d0b5;fill-opacity:1;stroke:none;stroke-width:0.03306947;stroke-linecap:round;stroke-linejoin:round;stroke-miterlimit:4;stroke-dasharray:none;stroke-dashoffset:0;stroke-opacity:1" />
      <path
         transform="rotate(-20.231351)"
         d="m 85.928468,209.29671 a 1.10504,2.1125765 0 0 1 1.10504,-2.11258 1.10504,2.1125765 0 0 1 1.10504,2.11258 h -1.10504 z"
         sodipodi:end="0"
         sodipodi:start="3.1415927"
         sodipodi:ry="2.1125765"
         sodipodi:rx="1.10504"
         sodipodi:cy="209.29671"
         sodipodi:cx="87.033508"
         sodipodi:type="arc"
         id="path2229-4-4-9"
         style="fill:#a25e25;fill-opacity:1;stroke:none;stroke-width:0.0486418;stroke-linecap:round;stroke-linejoin:round;stroke-miterlimit:4;stroke-dasharray:none;stroke-dashoffset:0;stroke-opacity:1" />
      <path
         sodipodi:nodetypes="sssssssss"
         inkscape:connector-curvature="0"
         id="rect4935"
         d="m 161.57429,177.98878 -0.44977,0.35962 c -0.13078,0.10452 -0.22433,0.23477 -0.12128,0.36669 l 2.08042,2.66286 c 0.10307,0.13193 0.1205,0.0183 0.2518,-0.0856 l 0.48414,-0.38273 c 0.13137,-0.10376 0.30548,-0.13511 0.21322,-0.27474 l -1.89644,-2.8698 c -0.0923,-0.13965 -0.43133,0.11885 -0.56204,0.22345 z"
         style="fill:#f0d0b5;fill-opacity:1;stroke-width:0.18335354" />
      <path
         inkscape:connector-curvature="0"
         id="path4952"
         d="m 164.59317,180.4457 c 0.30791,-0.14695 0.73458,-0.34646 0.94815,-0.44335 0.55378,-0.25123 0.76709,-0.57125 0.76709,-1.15082 0,-0.37889 -0.0368,-0.50508 -0.32038,-1.0982 -0.3975,-0.83144 -0.53413,-0.94468 -1.17916,-0.97725 -0.39334,-0.0199 -0.56205,0.0109 -1.16319,0.21204 -0.38672,0.12941 -0.89647,0.33805 -1.13277,0.46366 -0.76725,0.40782 -0.80525,0.22877 0.36763,1.73216 0.56844,0.72862 1.06037,1.37071 1.09316,1.42686 0.0518,0.0886 0.13347,0.0668 0.61947,-0.1651 z"
         style="fill:#dba97f;fill-opacity:1;stroke-width:0.06500236" />
      <path
         sodipodi:nodetypes="cssssssssc"
         inkscape:connector-curvature="0"
         id="rect4935-8"
         d="m 160.22865,179.26932 -0.31161,0.38668 c -0.10503,0.13036 -0.40982,0.47306 -0.2774,0.57549 l 2.7186,2.10297 c 0.13266,0.10215 0.15884,0.20426 0.24224,0.0591 l 0.38056,-0.66247 c 0.0834,-0.14517 0.1613,-0.17702 0.0361,-0.28821 l -2.52327,-2.24084 c -0.12521,-0.11113 -0.16016,-0.0631 -0.26523,0.0673 z"
         style="fill:#f0d0b5;fill-opacity:1;stroke-width:0.18335354" />
      <g
         transform="matrix(-0.81282315,0,0,0.97283599,266.81265,-45.436465)"
         id="g5046">
        <rect
           style="fill:#dba97f;fill-opacity:1;stroke-width:0.15278302"
           id="rect4973-9"
           width="7.9217691"
           height="0.30067819"
           x="172.71677"
           y="187.96498"
           ry="0.1503391"
           transform="rotate(11.28722)" />
        <rect
           style="fill:#dba97f;fill-opacity:1;stroke-width:0.15278302"
           id="rect4973-9-4"
           width="7.9217696"
           height="0.30067819"
           x="132.21294"
           y="220.87828"
           ry="0.1503391" />
        <rect
           style="fill:#dba97f;fill-opacity:1;stroke-width:0.15278302"
           id="rect4973-9-46"
           width="7.9217696"
           height="0.30067819"
           x="78.785278"
           y="247.88626"
           ry="0.1503391"
           transform="rotate(-13.013619)" />
      </g>
      <g
         transform="matrix(-0.86082698,0,0,0.97283599,272.92531,-45.560626)"
         id="g5041">
        <rect
           style="fill:#dba97f;fill-opacity:1;stroke-width:0.15278302"
           id="rect4973-9-41"
           width="7.9217691"
           height="0.30067819"
           x="-107.96864"
           y="244.11649"
           ry="0.1503391"
           transform="matrix(-0.98065834,0.19572741,0.19572741,0.98065834,0,0)" />
        <rect
           style="fill:#dba97f;fill-opacity:1;stroke-width:0.15278302"
           id="rect4973-9-4-2"
           width="7.9217696"
           height="0.30067819"
           x="-154.03394"
           y="221.00591"
           ry="0.1503391"
           transform="scale(-1,1)" />
        <rect
           style="fill:#dba97f;fill-opacity:1;stroke-width:0.15278302"
           id="rect4973-9-46-9"
           width="7.9217696"
           height="0.30067819"
           x="-200.13853"
           y="183.5528"
           ry="0.1503391"
           transform="matrix(-0.97431657,-0.22518265,-0.22518265,0.97431657,0,0)" />
      </g>
    </g>
  </g>
</svg>
