<?xml version="1.0" encoding="UTF-8" standalone="no"?>
<!-- Created with Inkscape (http://www.inkscape.org/) -->

<svg
   xmlns:dc="http://purl.org/dc/elements/1.1/"
   xmlns:cc="http://creativecommons.org/ns#"
   xmlns:rdf="http://www.w3.org/1999/02/22-rdf-syntax-ns#"
   xmlns:svg="http://www.w3.org/2000/svg"
   xmlns="http://www.w3.org/2000/svg"
   xmlns:sodipodi="http://sodipodi.sourceforge.net/DTD/sodipodi-0.dtd"
   xmlns:inkscape="http://www.inkscape.org/namespaces/inkscape"
   width="33.086639mm"
   height="46.000004mm"
   viewBox="0 0 33.086639 46.000003"
   version="1.1"
   id="svg6060"
   inkscape:version="0.92.3 (2405546, 2018-03-11)"
   sodipodi:docname="coffee.svg">
  <defs
     id="defs6054" />
  <sodipodi:namedview
     id="base"
     pagecolor="#ffffff"
     bordercolor="#666666"
     borderopacity="1.0"
     inkscape:pageopacity="0.0"
     inkscape:pageshadow="2"
     inkscape:zoom="0.35"
     inkscape:cx="491.44849"
     inkscape:cy="-26.397824"
     inkscape:document-units="mm"
     inkscape:current-layer="layer1"
     showgrid="false"
     inkscape:window-width="1920"
     inkscape:window-height="1017"
     inkscape:window-x="-8"
     inkscape:window-y="-8"
     inkscape:window-maximized="1" />
  <metadata
     id="metadata6057">
    <rdf:RDF>
      <cc:Work
         rdf:about="">
        <dc:format>image/svg+xml</dc:format>
        <dc:type
           rdf:resource="http://purl.org/dc/dcmitype/StillImage" />
        <dc:title></dc:title>
      </cc:Work>
    </rdf:RDF>
  </metadata>
  <g
     inkscape:label="Layer 1"
     inkscape:groupmode="layer"
     id="layer1"
     transform="translate(147.03801,-95.848907)">
    <g
       transform="translate(-281.05682,-127.82391)"
       id="g6052">
      <path
         sodipodi:nodetypes="sssssssss"
         inkscape:connector-curvature="0"
         id="rect5132-7-6"
         d="m 137.19677,227.97052 h 26.73146 c 0.7839,0 1.46879,-0.0802 1.41493,-0.18104 l -2.10068,-3.93562 c -0.0539,-0.10094 -0.63106,-0.1816 -1.41493,-0.18104 l -22.27306,0.0159 c -0.78383,3.7e-4 -1.35388,0.0797 -1.41489,0.18105 l -2.35773,3.91974 c -0.061,0.10141 0.63103,0.18105 1.4149,0.18105 z"
         style="fill:#955f48;fill-opacity:1;stroke-width:0.06583711" />
      <path
         sodipodi:nodetypes="sssssssss"
         inkscape:connector-curvature="0"
         id="rect5132"
         d="m 136.62608,226.8509 h 27.87571 c 0.81741,0 1.57084,0.75556 1.47546,1.67982 l -4.07144,39.46227 c -0.0954,0.92425 -0.65805,1.67983 -1.47547,1.67983 h -18.78766 c -0.81741,0 -1.3584,-0.75881 -1.47546,-1.67983 l -5.01661,-39.46227 c -0.11709,-0.92102 0.65806,-1.67982 1.47547,-1.67982 z"
         style="fill:#dac3aa;fill-opacity:1;stroke-width:0.20479053" />
      <path
         sodipodi:nodetypes="sssssssss"
         inkscape:connector-curvature="0"
         id="rect5132-7"
         d="m 137.6912,238.83805 h 25.83172 c 0.75751,0 1.41935,0.39383 1.3673,0.89 l -2.02998,19.34672 c -0.052,0.49618 -0.60981,0.89272 -1.3673,0.88998 l -21.52337,-0.078 c -0.75746,-0.002 -1.30832,-0.39149 -1.36727,-0.88999 l -2.27838,-19.26872 c -0.0589,-0.49849 0.6098,-0.88999 1.36728,-0.88999 z"
         style="fill:#954879;fill-opacity:1;stroke-width:0.14349401" />
      <circle
         r="8.1354885"
         cy="249.35353"
         cx="150.88519"
         id="path4619"
         style="fill:#f9f9f9;fill-opacity:1;stroke:none;stroke-width:0.05213558;stroke-opacity:1" />
      <ellipse
         transform="rotate(-12.999998)"
         ry="1.4628326"
         rx="0.84394187"
         cy="277.19995"
         cx="85.67485"
         id="path825"
         style="fill:#8ab2b1;fill-opacity:1;stroke:none;stroke-width:0.03454201" />
      <ellipse
         ry="5.6311059"
         rx="5.1339793"
         cy="249.78535"
         cx="150.96071"
         id="path815"
         style="fill:#b7c2c1;fill-opacity:1;stroke:none;stroke-width:0.11130252;stroke-miterlimit:4;stroke-dasharray:none;stroke-opacity:1" />
      <path
         sodipodi:nodetypes="sscccss"
         inkscape:connector-curvature="0"
         id="path861-6"
         d="m 151.8642,248.9446 c -0.0252,0.18035 -0.0471,0.43543 0.10838,0.5205 0.15973,0.0875 1.62215,-0.31769 2.77035,0.058 0.70921,0.20801 1.07831,0.39224 1.07831,0.39224 0,0 -0.35716,-0.9302 -1.75288,-1.09567 -1.39573,-0.1655 -1.94943,-0.032 -2.12241,0.0227 -0.0417,0.013 -0.0757,0.059 -0.0817,0.10225 z"
         style="fill:#73aba9;fill-opacity:1;stroke:none;stroke-width:0.04212834px;stroke-linecap:butt;stroke-linejoin:miter;stroke-opacity:1" />
      <path
         sodipodi:nodetypes="zzzsz"
         inkscape:connector-curvature="0"
         id="path829-9-4-8"
         d="m 154.91229,250.64467 c 0.0221,-0.43972 -0.43801,-0.98097 -1.35022,-0.98097 -0.91222,0 -1.37852,0.48179 -1.40935,0.95147 -0.0309,0.46967 0.75898,0.51289 1.29956,0.51289 0.54055,0 1.43795,-0.0437 1.46001,-0.48339 z"
         style="fill:#73aba9;fill-opacity:1;stroke:none;stroke-width:0.02334031px;stroke-linecap:butt;stroke-linejoin:miter;stroke-opacity:1" />
      <path
         sodipodi:nodetypes="zzzsz"
         inkscape:connector-curvature="0"
         id="path829-9"
         d="m 154.87715,250.80091 c 0.0216,-0.43972 -0.42664,-0.98096 -1.31511,-0.98096 -0.88848,0 -1.34266,0.48179 -1.37268,0.95146 -0.03,0.46969 0.73923,0.51288 1.26573,0.51288 0.52651,0 1.40057,-0.0436 1.42206,-0.48338 z"
         style="fill:#fff7f0;fill-opacity:1;stroke:none;stroke-width:0.0230347px;stroke-linecap:butt;stroke-linejoin:miter;stroke-opacity:1" />
      <ellipse
         ry="0.70237905"
         rx="0.76623183"
         cy="250.56583"
         cx="153.47516"
         id="path821-2"
         style="fill:#8ab2b1;fill-opacity:1;stroke:none;stroke-width:0.02023582" />
      <ellipse
         ry="0.4938603"
         rx="0.53875679"
         cy="250.56583"
         cx="153.49112"
         id="path821-3-4"
         style="fill:#73aba9;fill-opacity:1;stroke:none;stroke-width:0.01422831" />
      <ellipse
         ry="0.14366844"
         rx="0.31926325"
         cy="250.13754"
         cx="153.90616"
         id="path4627-4"
         style="fill:#ffffff;fill-opacity:1;stroke:none;stroke-width:0.04469686;stroke-opacity:1" />
      <path
         sodipodi:nodetypes="scsss"
         inkscape:connector-curvature="0"
         id="path817"
         d="m 149.05068,248.34582 c 4.92219,-1.0214 7.28475,4.33223 7.28475,4.33223 0,0 1.16576,-4.78234 0.17076,-6.41396 -0.99498,-1.63162 -4.05778,-5.33313 -8.83744,-2.25051 -3.0531,1.96908 -0.15613,4.65139 1.38193,4.33224 z"
         style="fill:#73aba9;fill-opacity:1;stroke:none;stroke-width:0.03903745px;stroke-linecap:butt;stroke-linejoin:miter;stroke-opacity:1" />
      <path
         sodipodi:nodetypes="ccssc"
         inkscape:connector-curvature="0"
         id="path819"
         d="m 147.61307,247.55814 c -2.89965,2.77895 -1.48159,2.71937 -1.91293,3.99465 0,0 -1.12526,-3.34763 -0.56264,-5.03552 0.56264,-1.68788 1.069,-1.32218 2.02546,-0.8158 0.95647,0.50636 0.45011,1.85667 0.45011,1.85667 z"
         style="fill:#73aba9;fill-opacity:1;stroke:none;stroke-width:0.03938396px;stroke-linecap:butt;stroke-linejoin:miter;stroke-opacity:1" />
      <path
         sodipodi:nodetypes="ssccccs"
         inkscape:connector-curvature="0"
         id="path861"
         d="m 150.28746,248.75794 c 0,0 -0.0384,0.45506 -0.20448,0.56933 -0.14396,0.099 -1.42518,-0.25564 -2.73761,0.11463 -0.69683,0.22032 -1.05792,0.4101 -1.05792,0.4101 0,0 0.33383,-0.92701 1.71022,-1.1195 1.37643,-0.19253 1.98352,-0.10224 1.98352,-0.10224 0,0 0.26539,0.025 0.30627,0.12777 z"
         style="fill:#73aba9;fill-opacity:1;stroke:none;stroke-width:0.04165802px;stroke-linecap:butt;stroke-linejoin:miter;stroke-opacity:1" />
      <path
         sodipodi:nodetypes="zzzsz"
         inkscape:connector-curvature="0"
         id="path829-9-4-3"
         d="m 147.27238,250.58916 c -0.0214,-0.43482 0.42561,-0.97002 1.312,-0.97002 0.88638,0 1.33949,0.47641 1.36944,0.94084 0.03,0.46444 -0.73749,0.50716 -1.26274,0.50716 -0.52527,0 -1.39727,-0.0431 -1.4187,-0.47798 z"
         style="fill:#73aba9;fill-opacity:1;stroke:none;stroke-width:0.02287873px;stroke-linecap:butt;stroke-linejoin:miter;stroke-opacity:1" />
      <path
         sodipodi:nodetypes="zzzsz"
         inkscape:connector-curvature="0"
         id="path829-9-4"
         d="m 147.28816,250.73384 c -0.0213,-0.43481 0.42186,-0.97001 1.30041,-0.97001 0.87856,0 1.32768,0.47642 1.35737,0.94084 0.0296,0.46443 -0.73098,0.50717 -1.25162,0.50717 -0.52062,0 -1.38492,-0.0431 -1.40616,-0.478 z"
         style="fill:#fff7f0;fill-opacity:1;stroke:none;stroke-width:0.02277755px;stroke-linecap:butt;stroke-linejoin:miter;stroke-opacity:1" />
      <ellipse
         ry="0.69453776"
         rx="0.75767773"
         cy="250.50331"
         cx="148.72237"
         id="path821"
         style="fill:#8ab2b1;fill-opacity:1;stroke:none;stroke-width:0.02000991" />
      <ellipse
         ry="0.4883469"
         rx="0.53274214"
         cy="250.4964"
         cx="148.7184"
         id="path821-3"
         style="fill:#73aba9;fill-opacity:1;stroke:none;stroke-width:0.01406947" />
      <ellipse
         ry="0.14206454"
         rx="0.31569901"
         cy="250.12715"
         cx="149.13277"
         id="path4627"
         style="fill:#ffffff;fill-opacity:1;stroke:none;stroke-width:0.04419787;stroke-opacity:1" />
      <path
         sodipodi:nodetypes="csscssc"
         inkscape:connector-curvature="0"
         id="path4674"
         d="m 146.72161,244.84338 c 0,0 1.15372,-1.41233 2.6854,-1.81017 1.53168,-0.39784 3.86258,-0.34018 5.67402,1.32935 1.05545,0.97276 1.49389,1.98065 1.49389,1.98065 0,0 -2.2061,-3.1407 -5.33785,-3.09118 -2.51632,0.0397 -4.05546,1.59135 -4.05546,1.59135 -1.19814,1.20198 -0.46,0 -0.46,0 z"
         style="fill:#8ab2b1;fill-opacity:1;stroke:none;stroke-width:0.03938396px;stroke-linecap:butt;stroke-linejoin:miter;stroke-opacity:1" />
      <path
         sodipodi:nodetypes="ccsscssc"
         inkscape:connector-curvature="0"
         id="path4678"
         d="m 146.76787,245.51411 0.10326,0.42767 c 0,0 1.46983,-1.22386 3.70662,-1.16368 1.84851,0.0497 2.62642,0.62108 3.77003,1.42227 1.38113,0.9676 2.12733,3.14293 2.12733,3.14293 0,0 -0.77463,-4.57699 -4.93932,-5.08238 -1.7495,-0.21231 -3.00936,0.36382 -3.94178,0.74593 -0.30051,0.12315 -0.82615,0.50726 -0.82615,0.50726 z"
         style="fill:#8ab2b1;fill-opacity:1;stroke:none;stroke-width:0.04013103px;stroke-linecap:butt;stroke-linejoin:miter;stroke-opacity:1" />
      <path
         sodipodi:nodetypes="ccsscssc"
         inkscape:connector-curvature="0"
         id="path4680"
         d="m 147.0645,246.37662 c 0,0 0.33759,0.18285 1.16746,0.35164 0.82988,0.16879 2.18018,-0.3235 3.64302,0.0844 1.46283,0.4079 2.7006,1.25184 3.38982,2.43336 0.68923,1.18153 1.12527,2.27865 1.12527,2.27865 0,0 -0.21099,-2.60215 -2.08173,-4.33223 -1.30369,-1.20567 -2.84127,-1.65975 -4.58542,-1.53317 -1.44435,0.10481 -2.65842,0.71735 -2.65842,0.71735 z"
         style="fill:#8ab2b1;fill-opacity:1;stroke:none;stroke-width:0.03938396px;stroke-linecap:butt;stroke-linejoin:miter;stroke-opacity:1" />
      <path
         sodipodi:nodetypes="cssscc"
         inkscape:connector-curvature="0"
         id="path4682"
         d="m 146.67837,245.69313 c 0,0 -0.90301,-0.64532 -1.38132,1.17025 -0.23331,0.88568 -0.10325,1.90441 -0.0469,2.21385 0.0563,0.30945 0.0155,-1.4531 0.22505,-2.03953 0.59476,-1.66491 1.32644,-0.86716 1.32644,-0.86716 0.0696,-0.22876 -0.0557,-0.29506 -0.12315,-0.47741 z"
         style="fill:#8ab2b1;fill-opacity:1;stroke:none;stroke-width:0.03938396px;stroke-linecap:butt;stroke-linejoin:miter;stroke-opacity:1" />
      <path
         sodipodi:nodetypes="csscccscc"
         inkscape:connector-curvature="0"
         id="path4684"
         d="m 147.02431,246.8216 c 0,0 -0.68506,-0.12283 -1.1551,0.63832 -0.17361,0.28114 -0.72517,2.04864 -0.54885,2.78476 0.0995,0.41536 0.11253,0.40791 0.11253,0.40791 l 0.26725,0.9002 c 0,0 -0.14065,-0.78767 -0.15472,-1.16746 -0.0142,-0.37976 -0.0295,-1.68051 0.61746,-2.62291 0.64703,-0.9424 1.04229,-0.54187 1.04229,-0.54187 z"
         style="fill:#8ab2b1;fill-opacity:1;stroke:none;stroke-width:0.03938396px;stroke-linecap:butt;stroke-linejoin:miter;stroke-opacity:1" />
      <path
         sodipodi:nodetypes="sssssssss"
         inkscape:connector-curvature="0"
         id="rect5132-7-6-2"
         d="m 135.60628,229.37802 h 29.91253 c 0.87718,0 1.64356,-0.0802 1.58331,-0.18105 l -2.35068,-3.93562 c -0.0603,-0.10093 -0.70613,-0.1816 -1.58329,-0.18104 l -24.92358,0.0159 c -0.87711,3.7e-4 -1.515,0.0797 -1.58325,0.18105 L 134.023,229.197 c -0.0682,0.10141 0.70614,0.18105 1.58328,0.18105 z"
         style="fill:#955f48;fill-opacity:1;stroke-width:0.06964437" />
    </g>
  </g>
</svg>
