<?xml version="1.0" encoding="UTF-8" standalone="no"?>
<!-- Created with Inkscape (http://www.inkscape.org/) -->

<svg
   xmlns:dc="http://purl.org/dc/elements/1.1/"
   xmlns:cc="http://creativecommons.org/ns#"
   xmlns:rdf="http://www.w3.org/1999/02/22-rdf-syntax-ns#"
   xmlns:svg="http://www.w3.org/2000/svg"
   xmlns="http://www.w3.org/2000/svg"
   xmlns:sodipodi="http://sodipodi.sourceforge.net/DTD/sodipodi-0.dtd"
   xmlns:inkscape="http://www.inkscape.org/namespaces/inkscape"
   width="109.30922mm"
   height="109.30922mm"
   viewBox="0 0 109.30922 109.30922"
   version="1.1"
   id="svg8"
   sodipodi:docname="selfperson.svg"
   inkscape:version="0.92.3 (2405546, 2018-03-11)">
  <defs
     id="defs2" />
  <sodipodi:namedview
     id="base"
     pagecolor="#ffffff"
     bordercolor="#666666"
     borderopacity="1.0"
     inkscape:pageopacity="0.0"
     inkscape:pageshadow="2"
     inkscape:zoom="0.7"
     inkscape:cx="223.08335"
     inkscape:cy="324.41929"
     inkscape:document-units="mm"
     inkscape:current-layer="layer1"
     showgrid="false"
     inkscape:window-width="1920"
     inkscape:window-height="1017"
     inkscape:window-x="-8"
     inkscape:window-y="-8"
     inkscape:window-maximized="1" />
  <metadata
     id="metadata5">
    <rdf:RDF>
      <cc:Work
         rdf:about="">
        <dc:format>image/svg+xml</dc:format>
        <dc:type
           rdf:resource="http://purl.org/dc/dcmitype/StillImage" />
      </cc:Work>
    </rdf:RDF>
  </metadata>
  <g
     inkscape:label="Layer 1"
     inkscape:groupmode="layer"
     id="layer1"
     transform="translate(-32.717583,-67.686768)">
    <rect
       style="fill:#2a9db2;fill-opacity:0;stroke:none;stroke-width:0.26458332;stroke-opacity:1"
       id="rect4621"
       width="221.56644"
       height="190.56317"
       x="-0.8018086"
       y="49.775688" />
    <g
       id="g4894">
      <circle
         r="54.65461"
         cy="122.34138"
         cx="87.372192"
         id="path4619"
         style="fill:#ffffff;fill-opacity:1;stroke:none;stroke-width:0.35024932;stroke-opacity:1" />
      <ellipse
         transform="rotate(-13)"
         ry="9.8273811"
         rx="5.6696429"
         cy="140.84572"
         cx="22.33667"
         id="path825"
         style="fill:#f4ca9d;fill-opacity:1;stroke:none;stroke-width:0.23205492" />
      <ellipse
         ry="37.830044"
         rx="34.490326"
         cy="125.24224"
         cx="87.879456"
         id="path815"
         style="fill:#fbd9b6;fill-opacity:1;stroke:none;stroke-width:0.7477358;stroke-miterlimit:4;stroke-dasharray:none;stroke-opacity:1" />
      <path
         sodipodi:nodetypes="sscccss"
         inkscape:connector-curvature="0"
         id="path861-6"
         d="m 93.934891,118.63672 c -0.149109,1.06763 -0.278871,2.57758 0.641444,3.0811 0.945524,0.51731 9.602275,-1.88051 16.399035,0.34296 4.19816,1.23129 6.38305,2.3218 6.38305,2.3218 0,0 -2.11413,-5.50627 -10.37613,-6.48587 -8.262017,-0.97964 -11.539688,-0.18962 -12.563657,0.13436 -0.246337,0.0779 -0.448003,0.34976 -0.483742,0.60565 z"
         style="fill:#754e26;fill-opacity:1;stroke:none;stroke-width:0.24937904px;stroke-linecap:butt;stroke-linejoin:miter;stroke-opacity:1" />
      <path
         sodipodi:nodetypes="zzzsz"
         inkscape:connector-curvature="0"
         id="path829-9-4-8"
         d="m 111.97817,128.70036 c 0.13057,-2.60294 -2.59282,-5.80687 -7.99269,-5.80687 -5.399836,0 -8.160149,2.85198 -8.342647,5.63225 -0.182508,2.78028 4.492777,3.03599 7.692677,3.03599 3.1999,0 8.51207,-0.25843 8.64266,-2.86137 z"
         style="fill:#754e26;fill-opacity:1;stroke:none;stroke-width:0.13816312px;stroke-linecap:butt;stroke-linejoin:miter;stroke-opacity:1" />
      <path
         sodipodi:nodetypes="zzzsz"
         inkscape:connector-curvature="0"
         id="path829-9"
         d="m 111.77006,129.62523 c 0.12718,-2.60294 -2.52537,-5.80687 -7.78475,-5.80687 -5.259369,0 -7.947868,2.85198 -8.125618,5.63225 -0.177756,2.78027 4.375898,3.03598 7.492548,3.03598 3.11666,0 8.29063,-0.25842 8.41782,-2.86136 z"
         style="fill:#fff7f0;fill-opacity:1;stroke:none;stroke-width:0.13635409px;stroke-linecap:butt;stroke-linejoin:miter;stroke-opacity:1" />
      <path
         sodipodi:nodetypes="scsss"
         inkscape:connector-curvature="0"
         id="path817"
         d="m 75.047811,115.57144 c 33.067539,-6.86178 48.939359,29.10415 48.939359,29.10415 0,0 7.83155,-32.12797 1.14716,-43.08928 C 118.44995,90.624998 97.873896,65.758093 65.763944,86.467261 45.253079,99.695651 64.715018,117.71558 75.047811,115.57144 Z"
         style="fill:#9a7248;fill-opacity:1;stroke:none;stroke-width:0.26225552px;stroke-linecap:butt;stroke-linejoin:miter;stroke-opacity:1" />
      <path
         sodipodi:nodetypes="ccssc"
         inkscape:connector-curvature="0"
         id="path819"
         d="m 65.389881,110.27976 c -19.479996,18.66918 -9.953373,18.26885 -12.851191,26.83631 0,0 -7.559524,-22.48958 -3.779763,-33.82887 3.779763,-11.339285 7.181548,-8.882439 13.607142,-5.480654 6.425597,3.401784 3.023812,12.473214 3.023812,12.473214 z"
         style="fill:#9a7248;fill-opacity:1;stroke:none;stroke-width:0.26458332px;stroke-linecap:butt;stroke-linejoin:miter;stroke-opacity:1" />
      <path
         sodipodi:nodetypes="zzzsz"
         inkscape:connector-curvature="0"
         id="path829"
         d="m 78.96767,148.84051 c -0.146421,1.5121 3.575508,4.57602 9.630366,4.57602 6.05486,0 9.150003,-1.65676 9.354634,-3.27187 0.204639,-1.61511 -5.037745,-1.76365 -8.625809,-1.76365 -3.588059,0 -10.21277,-1.05259 -10.359191,0.4595 z"
         style="fill:#ed979d;fill-opacity:1;stroke:none;stroke-width:0.11150911px;stroke-linecap:butt;stroke-linejoin:miter;stroke-opacity:1" />
      <path
         sodipodi:nodetypes="zzzsz"
         inkscape:connector-curvature="0"
         id="path829-9-4-3"
         d="m 65.554478,128.55861 c -0.128313,-2.60294 2.547854,-5.80687 7.854061,-5.80687 5.306197,0 8.018633,2.85198 8.197966,5.63225 0.179343,2.78028 -4.41485,3.03599 -7.55926,3.03599 -3.144409,0 -8.364445,-0.25843 -8.492767,-2.86137 z"
         style="fill:#754e26;fill-opacity:1;stroke:none;stroke-width:0.13695976px;stroke-linecap:butt;stroke-linejoin:miter;stroke-opacity:1" />
      <path
         sodipodi:nodetypes="zzzsz"
         inkscape:connector-curvature="0"
         id="path829-9-4"
         d="m 65.64893,129.42478 c -0.12718,-2.60294 2.52537,-5.80687 7.78475,-5.80687 5.25937,0 7.94787,2.85198 8.12562,5.63225 0.17776,2.78028 -4.37589,3.03599 -7.49255,3.03599 -3.11666,0 -8.29063,-0.25843 -8.41782,-2.86137 z"
         style="fill:#fff7f0;fill-opacity:1;stroke:none;stroke-width:0.13635409px;stroke-linecap:butt;stroke-linejoin:miter;stroke-opacity:1" />
      <path
         sodipodi:nodetypes="ssccccs"
         inkscape:connector-curvature="0"
         id="path861"
         d="m 83.603804,117.59637 c 0,0 -0.229505,2.72421 -1.224145,3.40819 -0.861752,0.5926 -8.53152,-1.53031 -16.38824,0.68638 -4.171456,1.31892 -6.333021,2.45498 -6.333021,2.45498 0,0 1.998337,-5.54936 10.238021,-6.70176 8.239678,-1.15244 11.87393,-0.61274 11.87393,-0.61274 0,0 1.588708,0.14963 1.833455,0.76495 z"
         style="fill:#754e26;fill-opacity:1;stroke:none;stroke-width:0.24937902px;stroke-linecap:butt;stroke-linejoin:miter;stroke-opacity:1" />
      <ellipse
         ry="4.1577377"
         rx="4.5357146"
         cy="128.04463"
         cx="74.23452"
         id="path821"
         style="fill:#865f37;fill-opacity:1;stroke:none;stroke-width:0.11978612" />
      <ellipse
         ry="4.1577377"
         rx="4.5357146"
         cy="128.23363"
         cx="103.47099"
         id="path821-2"
         style="fill:#865f37;fill-opacity:1;stroke:none;stroke-width:0.11978612" />
      <ellipse
         ry="3.3072922"
         rx="5.6696429"
         cy="137.77753"
         cx="90.903275"
         id="path825-0"
         style="fill:#f4ca9d;fill-opacity:1;stroke:none;stroke-width:0.14313008" />
      <ellipse
         ry="2.9234095"
         rx="3.1891744"
         cy="128.00331"
         cx="74.210899"
         id="path821-3"
         style="fill:#66421e;fill-opacity:1;stroke:none;stroke-width:0.08422462" />
      <ellipse
         ry="0.8504464"
         rx="1.8898809"
         cy="125.79298"
         cx="76.691376"
         id="path4627"
         style="fill:#ffffff;fill-opacity:1;stroke:none;stroke-width:0.26458332;stroke-opacity:1" />
      <ellipse
         ry="2.9234095"
         rx="3.1891744"
         cy="128.23364"
         cx="103.56548"
         id="path821-3-4"
         style="fill:#66421e;fill-opacity:1;stroke:none;stroke-width:0.08422462" />
      <ellipse
         ry="0.8504464"
         rx="1.8898809"
         cy="125.69849"
         cx="106.02231"
         id="path4627-4"
         style="fill:#ffffff;fill-opacity:1;stroke:none;stroke-width:0.26458332;stroke-opacity:1" />
      <path
         sodipodi:nodetypes="csscssc"
         inkscape:connector-curvature="0"
         id="path4674"
         d="m 59.400977,92.041873 c 0,0 7.750817,-9.488066 18.040693,-12.160763 10.289876,-2.672694 25.94896,-2.285377 38.11834,8.930601 7.09051,6.535014 10.03604,13.306139 10.03604,13.306139 0,0 -14.82074,-21.099392 -35.859982,-20.766757 C 72.83127,81.618362 62.49128,92.041874 62.49128,92.041874 c -8.049083,8.074996 -3.090303,-1e-6 -3.090303,-1e-6 z"
         style="fill:#a67a4d;fill-opacity:1;stroke:none;stroke-width:0.26458332px;stroke-linecap:butt;stroke-linejoin:miter;stroke-opacity:1" />
      <path
         sodipodi:nodetypes="ccsscssc"
         inkscape:connector-curvature="0"
         id="path4678"
         d="m 59.71181,96.547852 0.693764,2.87314 c 0,0 9.874383,-8.221894 24.901276,-7.817628 12.418363,0.334089 17.64437,4.172418 25.32719,9.554876 9.2785,6.50038 14.29154,21.1143 14.29154,21.1143 0,0 -5.20407,-30.748436 -33.182654,-34.143681 -11.753171,-1.426266 -20.216933,2.444225 -26.481008,5.011302 -2.018835,0.827338 -5.550108,3.407691 -5.550108,3.407691 z"
         style="fill:#a67a4d;fill-opacity:1;stroke:none;stroke-width:0.26960221px;stroke-linecap:butt;stroke-linejoin:miter;stroke-opacity:1" />
      <path
         sodipodi:nodetypes="ccsscssc"
         inkscape:connector-curvature="0"
         id="path4680"
         d="m 61.704612,102.34226 c 0,0 2.267856,1.22843 7.843006,2.36236 5.575149,1.13392 14.646577,-2.17337 24.473959,0.56696 9.827383,2.74032 18.142863,8.40997 22.773073,16.34747 4.63021,7.9375 7.55952,15.30803 7.55952,15.30803 0,0 -1.41741,-17.4814 -13.98512,-29.10417 C 101.61081,99.723188 91.281248,96.672618 79.563987,97.523063 69.860754,98.22733 61.704612,102.34226 61.704612,102.34226 Z"
         style="fill:#a67a4d;fill-opacity:1;stroke:none;stroke-width:0.26458332px;stroke-linecap:butt;stroke-linejoin:miter;stroke-opacity:1" />
      <path
         sodipodi:nodetypes="cssscc"
         inkscape:connector-curvature="0"
         id="path4682"
         d="m 59.110454,97.750565 c 0,0 -6.066412,-4.335265 -9.279667,7.861815 -1.567495,5.95 -0.693884,12.79387 -0.315906,14.87274 0.377976,2.07887 0.104566,-9.76204 1.511904,-13.70164 3.995611,-11.185027 8.911067,-5.82569 8.911067,-5.82569 0.467722,-1.536798 -0.373419,-1.982242 -0.827398,-3.207225 z"
         style="fill:#a67a4d;fill-opacity:1;stroke:none;stroke-width:0.26458332px;stroke-linecap:butt;stroke-linejoin:miter;stroke-opacity:1" />
      <path
         sodipodi:nodetypes="csscccscc"
         inkscape:connector-curvature="0"
         id="path4684"
         d="m 61.434562,105.33167 c 0,0 -4.602254,-0.82517 -7.759977,4.28826 -1.166353,1.88872 -4.871769,13.7629 -3.687235,18.70819 0.668362,2.79033 0.755952,2.74033 0.755952,2.74033 l 1.795388,6.04762 c 0,0 -0.94494,-5.29167 -1.039434,-7.84301 -0.0945,-2.55133 -0.198487,-11.28983 4.148239,-17.62093 4.346726,-6.3311 7.002058,-3.64023 7.002058,-3.64023 z"
         style="fill:#a67a4d;fill-opacity:1;stroke:none;stroke-width:0.26458332px;stroke-linecap:butt;stroke-linejoin:miter;stroke-opacity:1" />
      <path
         inkscape:connector-curvature="0"
         id="path4707"
         d="m 80.792409,149.49479 c 0,0 3.212798,1.79539 7.748513,1.70089 4.535713,-0.0945 8.22098,-0.75595 8.22098,-0.75595"
         style="fill:none;fill-opacity:1;stroke:#ed979d;stroke-width:0.26458332px;stroke-linecap:butt;stroke-linejoin:miter;stroke-opacity:1" />
    </g>
  </g>
</svg>
