<?xml version="1.0" encoding="UTF-8" standalone="no"?><!DOCTYPE svg PUBLIC "-//W3C//DTD SVG 1.1//EN" "http://www.w3.org/Graphics/SVG/1.1/DTD/svg11.dtd"><svg width="100%" height="100%" viewBox="0 0 509 511" version="1.1" xmlns="http://www.w3.org/2000/svg" xmlns:xlink="http://www.w3.org/1999/xlink" xml:space="preserve" xmlns:serif="http://www.serif.com/" style="fill-rule:evenodd;clip-rule:evenodd;stroke-linejoin:round;stroke-miterlimit:1.41421;"><rect id="Artboard1" x="0" y="0" width="508.264" height="510.638" style="fill:none;"/><circle cx="253.701" cy="254.768" r="250" style="fill:#fff;"/><g id="Layer1"><path d="M130.975,319.266c0,0 -10.568,-13.213 -15.959,-15.257c-7.224,-2.738 -14.974,-4.962 -19.641,1.468c-6.588,9.078 -6.598,29.44 0.315,45.418c3.15,7.278 9.541,15.2 15.262,17.996c5.722,2.796 17.515,6.279 22.803,-0.782c5.289,-7.061 4.982,-14.504 3.206,-25.82c-1.777,-11.316 -5.986,-23.023 -5.986,-23.023Z" style="fill:#fbd4be;"/><path d="M380.661,302.843c0,0 13.284,-24.312 22.928,-20.686c9.644,3.626 8.883,16.995 9.24,25.048c0.357,8.053 -0.389,20.991 -3.586,30.361c-3.196,9.37 -14.284,20.98 -20.439,16.496c-6.703,-4.884 -7.652,-12.508 -10.204,-21.649c-2.551,-9.142 2.061,-29.57 2.061,-29.57Z" style="fill:#fbd4be;"/><path d="M270.959,459.299c29.057,0.16 78.746,-52.113 98.34,-82.763c2.71,-4.238 14.371,-42.329 16.644,-80.287c0.159,-2.661 0.31,-5.364 0.45,-8.102c1.664,-32.423 1.937,-69.878 -0.985,-102.781c-7.259,-81.726 -67.173,-128.98 -157.729,-114.582c-90.557,14.398 -89.111,59.621 -101.234,112.941c-24.19,106.397 17.093,183.693 26.107,196.708c14.565,21.028 69.534,78.597 118.407,78.866Z" style="fill:#fbd4be;"/><path d="M122.477,333.069c0.195,0.093 -7.312,-15.585 -13.476,-16.404c-6.347,-0.844 -8.246,3.351 -9.303,8.249c-1.057,4.897 1.311,29.519 13.648,33.251c-3.279,-5.716 -4.207,-16.555 -1.255,-21.746c2.636,-4.634 7.361,-4.801 10.386,-3.35Z" style="fill:#f1be9e;"/><path d="M391.097,315.96c0,0 5.248,-20.996 10.582,-19.241c4.648,1.529 5.01,9.92 4.875,18.065c-0.136,8.144 -4.076,19.537 -6.034,24.675c1.03,-8.996 0.62,-16.463 -1.336,-21.837c-1.349,-3.707 -4.533,-3.647 -8.087,-1.662Z" style="fill:#f1be9e;"/><path d="M260.583,354.201c2.789,-1.375 5.34,-1.264 5.694,0.247c0.354,1.511 -1.622,3.854 -4.411,5.229c-2.789,1.375 -5.341,1.264 -5.695,-0.247c-0.354,-1.511 1.623,-3.854 4.412,-5.229Z" style="fill:#f1be9e;"/><path d="M281.874,352.093c2.914,0.616 5.152,2.398 4.993,3.977c-0.158,1.579 -2.653,2.362 -5.568,1.746c-2.915,-0.616 -5.152,-2.398 -4.994,-3.977c0.159,-1.579 2.654,-2.361 5.569,-1.746Z" style="fill:#f1be9e;"/></g><g id="Layer2"><path d="M222.017,307.158c0,0 3.913,-29.877 -29.526,-34.063c-33.438,-4.186 -35.723,3.012 -37.44,5.653c-1.717,2.642 1.103,19.636 20.96,27.846c10.156,4.199 35.199,0.072 46.006,0.564Z" style="fill:#fff;"/><path d="M174.983,277.037c2.148,-0.4 4.462,-0.721 7.029,-0.939c9.556,-0.813 17.059,0.85 21.924,4.196c3.924,2.699 9.604,7.256 12.647,10.956c-2.143,7.987 -8.641,14.089 -16.648,15.786l-0.225,0.014c-3.253,0.206 -5.779,0.26 -7.875,0.21c-11.108,-1.75 -19.262,-11.735 -18.517,-23.183c0.161,-2.49 0.732,-4.857 1.665,-7.04Z" style="fill:#675348;"/><path d="M196.083,271.173c7.871,0.511 13.846,7.317 13.335,15.188c-0.512,7.871 -7.318,13.846 -15.189,13.334c-7.871,-0.511 -13.846,-7.317 -13.334,-15.188c0.512,-7.871 7.317,-13.846 15.188,-13.334Z"/><path d="M199.935,307.036c-1.943,0.438 -3.976,0.597 -6.056,0.461l-2.044,-0.237c2.096,0.05 4.622,-0.004 7.875,-0.21l0.225,-0.014Z"/><path d="M216.547,291.206c-3.051,-3.691 -8.702,-8.223 -12.611,-10.912c-4.865,-3.346 -12.368,-5.009 -21.924,-4.196c-2.567,0.218 -4.881,0.539 -7.029,0.939c1.06,-2.562 2.589,-4.869 4.479,-6.821c-1.895,1.954 -3.428,4.261 -4.479,6.821c-7.62,1.337 -12.772,3.427 -18.267,4.064c1.849,4.141 3.058,11.854 9.649,17.601c4.581,3.995 14.254,7.825 18.407,8.169c2.053,0.17 4.138,0.371 7.063,0.389l2.044,0.237c2.08,0.136 4.113,-0.023 6.056,-0.461c7.654,-0.487 11.899,-0.787 20.952,-0.183c-22.391,1.813 -27.934,3.511 -36.34,3.189c-7.668,-0.293 -15.412,-2.893 -20.37,-6.389c-6.098,-4.3 -9.625,-8.946 -11.942,-13.913c-2.316,-4.968 -2.76,-9.436 -2.76,-9.436c0,0 -2.216,-1.582 -4.248,-4.338c-2.031,-2.756 -2.278,-9.803 -2.278,-9.803c0,0 2.621,3.164 5.034,4.532c2.412,1.368 6.318,1.74 9.017,1.575c2.699,-0.164 7.711,-2.212 15.527,-3.668c2.471,-0.46 5.843,-0.646 9.449,-0.612l0.143,0.001c6.057,0.061 12.752,0.73 16.97,1.733c6.769,1.61 14.782,10.175 17.891,14.368l0.35,0.58l0.02,0.03c3.383,5.165 6.65,18.081 5.023,16.564c-0.59,-0.55 -2.156,-4.559 -4.618,-8.429c-0.323,-0.507 -0.72,-1.043 -1.172,-1.587l-0.036,-0.044Zm0.234,-0.744c-0.017,0.073 -0.034,0.145 -0.052,0.218c0.018,-0.073 0.035,-0.145 0.052,-0.218Zm0.182,-0.864c-0.021,0.107 -0.042,0.214 -0.064,0.321c0.022,-0.107 0.043,-0.214 0.064,-0.321Zm0.105,-0.605l-0.008,0.052l0.008,-0.052Zm0.151,-1.135c-0.023,0.216 -0.049,0.43 -0.078,0.644c0.029,-0.214 0.055,-0.428 0.078,-0.644Zm0.044,-0.451c-0.005,0.056 -0.01,0.111 -0.015,0.167c0.005,-0.056 0.01,-0.111 0.015,-0.167Zm0.078,-1.464c-0.002,0.093 -0.005,0.185 -0.008,0.278c0.004,-0.116 0.007,-0.233 0.009,-0.349l-0.001,0.071Zm-0.002,-0.989c0.001,0.033 0.001,0.066 0.002,0.099l-0.001,-0.028l-0.001,-0.071Zm-0.528,5.376c0.005,-0.022 0.01,-0.044 0.015,-0.066l-0.015,0.066c-0.005,0.022 -0.01,0.044 -0.015,0.066l0.015,-0.066Zm0.058,-0.265c-0.009,0.044 -0.019,0.088 -0.029,0.133l0.015,-0.067c0.005,-0.022 0.009,-0.044 0.014,-0.066Zm0.476,-4.476c0,0 0,0 0,0Zm-0.012,-0.846c0.001,0.047 0.003,0.094 0.004,0.141l-0.002,-0.071c-0.001,-0.023 -0.002,-0.047 -0.002,-0.07Z" style="fill:#342719;"/><path d="M301.154,303.193c0.018,-0.002 -5.827,-17.234 16.73,-33.388c22.661,-16.228 46.866,-2.839 48.417,-2.011c1.551,0.828 -2.867,24.476 -21.892,31.804c-9.313,3.587 -18.936,1.118 -43.255,3.595Z" style="fill:#fff;"/><path d="M347.217,268.483c2.044,3.594 3.087,7.802 2.799,12.229c-0.549,8.448 -5.8,15.479 -13.048,18.699c-4.373,1.041 -8.86,1.369 -13.187,1.476c-8.492,-1.643 -15.124,-8.126 -17.149,-16.322c3.937,-5.458 10.001,-11.13 18.979,-13.643c8.173,-2.288 15.571,-2.752 21.606,-2.439Z" style="fill:#675348;"/><path d="M328.676,265.426c7.871,0.511 13.846,7.317 13.335,15.188c-0.512,7.871 -7.318,13.846 -15.189,13.334c-7.871,-0.511 -13.846,-7.317 -13.334,-15.188c0.512,-7.871 7.317,-13.846 15.188,-13.334Z"/><path d="M336.968,299.411c-3.146,1.418 -6.683,2.102 -10.372,1.862c-0.96,-0.062 -1.902,-0.186 -2.815,-0.386c4.331,-0.106 8.818,-0.424 13.187,-1.476Z"/><path d="M306.391,275.176c-0.019,0.091 -0.037,0.182 -0.055,0.273c0.015,-0.077 0.031,-0.154 0.047,-0.231l0.008,-0.042Zm0.035,8.48c0.013,0.065 0.027,0.129 0.04,0.193c-0.013,-0.064 -0.027,-0.128 -0.04,-0.193Zm-0.142,-0.767c0.04,0.24 0.084,0.478 0.131,0.715c-0.047,-0.237 -0.091,-0.475 -0.131,-0.715Zm-0.08,-0.516c0.007,0.05 0.015,0.101 0.022,0.151c-0.01,-0.067 -0.02,-0.135 -0.029,-0.203l0.007,0.052Zm-0.102,-0.834c0.004,0.035 0.007,0.07 0.011,0.105l-0.005,-0.052l-0.006,-0.053Zm-0.087,-1.136c0.003,0.045 0.005,0.09 0.008,0.135l-0.003,-0.053c-0.002,-0.027 -0.003,-0.055 -0.005,-0.082Zm-0.012,-0.29c0.002,0.047 0.003,0.093 0.005,0.14c-0.002,-0.047 -0.003,-0.093 -0.005,-0.14Zm-0.011,-1.232c-0.002,0.093 -0.003,0.186 -0.004,0.279c0.001,-0.075 0.002,-0.15 0.003,-0.225l0.001,-0.054Zm0.036,-0.919c-0.007,0.113 -0.013,0.226 -0.018,0.339c0.006,-0.131 0.013,-0.262 0.021,-0.394l-0.003,0.055Zm0.239,4.824c-0.011,-0.068 -0.022,-0.137 -0.033,-0.206c0.014,0.086 0.027,0.172 0.041,0.258l-0.008,-0.052Zm-0.084,-0.569c0,0 0,0 0,0Zm-0.021,-0.156c-0.002,-0.019 -0.005,-0.038 -0.007,-0.057c0.004,0.036 0.009,0.073 0.014,0.109l-0.007,-0.052Zm-0.07,-0.627c-0.002,-0.017 -0.004,-0.035 -0.005,-0.052c0.003,0.035 0.006,0.07 0.01,0.105l-0.005,-0.053Zm-0.02,-0.21c-0.001,-0.017 -0.003,-0.035 -0.004,-0.052c0.003,0.035 0.006,0.07 0.009,0.105l-0.005,-0.053Zm-0.075,-1.271c0,-0.018 -0.001,-0.035 -0.001,-0.053c0.001,0.035 0.002,0.071 0.003,0.106l-0.002,-0.053Zm-0.005,-0.213c-0.002,-0.107 -0.003,-0.214 -0.004,-0.322c0.001,0.126 0.003,0.25 0.005,0.375l-0.001,-0.053Zm-0.004,-0.429c0,0 0,0 0,0Zm0.006,-0.538c0,0 0,0 0,0Zm0.004,-0.162c0.002,-0.052 0.004,-0.104 0.006,-0.156c-0.003,0.07 -0.005,0.14 -0.007,0.21l0.001,-0.054Zm41.077,-10.135c-6.009,-0.299 -13.355,0.176 -21.464,2.446c-8.943,2.504 -14.994,8.141 -18.933,13.579l-0.046,0.064c-4.734,6.495 -6.415,12.675 -6.415,12.675c-1.703,-2.28 1.027,-14.625 6.192,-22.147l0.051,-0.076c1.08,-1.586 2.277,-2.95 3.563,-3.958c6.294,-4.935 12.114,-9.073 24.174,-10.241l5.287,-0.345c2.777,1.694 5.137,3.977 6.91,6.661c-1.78,-2.697 -4.142,-4.985 -6.91,-6.661c13.151,-0.528 20.091,2.215 21.583,2.461c1.681,0.276 4.619,-0.516 9.336,-2.593c4.718,-2.077 5.367,-4.958 5.367,-4.958c0,0 0.118,5.024 -1.253,8.386c-1.37,3.362 -3.986,5.778 -3.986,5.778c0,0 -1.615,12.508 -8.058,20.645c-7.179,9.067 -18.281,11.527 -25.057,12.916c-3.931,0.806 -20.718,-0.559 -35.519,0.207c5.236,-2.705 13.248,-2.155 21.884,-2.428c0.913,0.2 1.855,0.324 2.815,0.386c3.689,0.24 7.226,-0.444 10.372,-1.862c2.227,-0.504 4.421,-1.212 6.549,-2.172c18.203,-8.203 20.121,-25.622 20.044,-25.627c-0.048,-0.003 -6.352,-2.622 -16.344,-3.129l-0.142,-0.007Z" style="fill:#342719;"/></g><g id="Layer4"><path d="M383.821,305.573c-0.382,-7.384 -0.712,-11.407 -0.4,-13.615c0.221,-1.565 1.651,-10.426 1.791,-12.545c0.177,-2.654 1.207,-12.695 1.31,-15.352c0.865,-22.288 -8.13,-37.613 -24.272,-52.21c-6.583,-5.953 -13.68,-10.504 -21.388,-14.828c-0.98,-0.55 -7.677,-3 -7.677,-4.411c0,-1.304 0.872,2.461 1.426,3.641c0.071,0.149 0.142,0.298 0.216,0.446c0.414,0.832 4.016,8.326 3.374,8.839c-0.157,0.126 -0.966,-0.355 -1.07,-0.403c-3.822,-1.795 -7.733,-3.347 -11.644,-4.936c-13.841,-5.623 -27.477,-11.855 -40.14,-19.829c-10.401,-6.549 -19.042,-14.554 -28.349,-22.477c-1.728,-1.471 -8.912,-6.266 -8.912,-8.76c0,-0.654 0.669,1.129 0.902,1.74c0.521,1.369 0.833,2.815 1.284,4.208c1.374,4.243 3.774,8.302 5.776,12.281c3.739,7.433 9.118,14.316 14.922,20.252c0.55,0.562 6.101,5.281 5.703,5.988c-0.205,0.365 -5.281,-1.722 -5.75,-1.882c-3.825,-1.301 -7.631,-2.73 -11.407,-4.166c-14.691,-5.585 -33.974,-12.862 -45.866,-23.247c-3.915,-3.419 -7.471,-7.29 -11.263,-10.845c-0.064,-0.059 -0.164,-0.195 -0.097,-0.302c0.661,-1.058 0.891,2.343 1.523,3.419c1.385,2.357 2.842,4.668 4.537,6.817c4.115,5.216 9.101,9.793 13.784,14.487c2.249,2.254 4.414,4.561 6.797,6.676c0.243,0.215 0.594,0.77 0.594,0.77c0,0 -4.071,-0.397 -6.035,-0.931c-4.298,-1.169 -8.423,-2.747 -12.526,-4.473c-11.515,-4.847 -25.043,-10.613 -34.577,-18.856c-4.043,-3.496 -7.411,-7.827 -10.741,-11.976c-1.15,-1.433 -2.425,-2.748 -3.659,-4.107c-0.313,-0.345 -2.737,-3.664 -2.606,-3.186l-0.008,0.07c-0.025,-0.029 1.065,1.375 1.33,1.799c0.925,1.482 1.444,3.17 1.854,4.857c1.207,4.975 2.114,10.906 1.022,15.984c-2.771,12.89 -9.538,23.936 -14.878,35.729c-1.957,4.323 -4.192,12.808 -7.698,15.964c-0.567,0.51 -0.131,-1.526 -0.31,-2.268c-0.412,-1.71 -0.824,-3.424 -1.116,-5.159c-0.116,-0.689 0.282,-2.552 -0.238,-2.084c-1.47,1.323 -2.349,8.426 -3.136,10.481c-3.36,8.774 -9.086,17.167 -11.645,26.139c-1.086,3.81 -1.379,8.231 -1.379,12.179c0,1.288 0,2.576 0,3.864c0,0.635 0.047,2.538 0.047,1.904c0,-1.163 -1.407,-2.875 -2.042,-3.946c-0.393,-0.665 -0.869,-2.716 -1.166,-2.003c-1.443,3.465 0.904,11.721 0.904,15.397c0,14.119 -1.397,17.83 4.169,30.7c1.846,4.267 6.27,13.811 8.688,17.735c1.048,1.7 1.53,3.602 2.446,5.34c0.003,0.005 0.158,0.315 0.216,0.223c0.01,-0.017 -2.525,-2.039 -2.758,-2.265c-1.71,-1.66 -3.379,-3.415 -5.275,-4.877c-1.31,-1.009 -3.225,-5.977 -5.538,-7.81c-0.345,0.652 -6.196,-7.556 -6.439,-8.03c-1.701,-3.327 -4.695,-13.013 -7.485,-15.054c-0.586,-0.428 -0.74,4.268 -1.119,3.926c-2.966,-2.669 -3.514,-10.557 -4.61,-14.142c-3.409,-11.156 -7.699,-22.118 -10.362,-33.485c-1.611,-6.878 -3.302,-13.865 -4.109,-20.879c-0.259,-2.244 0.559,-7.328 -0.594,-9.287c-1.012,-1.72 0.139,6.601 -1.664,5.748c-1.301,-0.617 -1.582,-8.318 -1.688,-9.551c-0.844,-9.77 -1.495,-19.152 -1.307,-28.992c0.199,-10.405 1.332,-21.078 3.421,-31.278c0.423,-2.068 3.902,-9.144 2.711,-11.169c-0.791,-1.344 -3.554,4.479 -3.186,0.586c1.049,-11.127 10.119,-26.48 17.754,-34.05c4.568,-4.529 12.678,-8.827 15.872,-14.506c0.382,-0.679 -5.06,-2.176 -5.06,-2.186c0,-0.134 1.43,-0.526 1.545,-0.564c4.253,-1.399 8.848,-2.529 13.284,-3.156c1.054,-0.149 5.278,-0.106 5.156,-0.082c-0.596,0 2.067,-2.266 2.163,-2.389c1.504,-1.909 3.023,-3.802 4.61,-5.644c4.498,-5.222 9.324,-10.267 15.043,-14.162c1.061,-0.722 2.139,-1.41 3.255,-2.042c0.115,-0.065 4.65,-2.364 4.706,-2.268c0.569,0.967 -1.854,4.749 -1.854,6.172c0,0.095 9.985,-4.883 10.456,-5.12c6.687,-3.357 13.758,-7.097 20.913,-9.325c1.483,-0.461 17.336,-4.313 17.564,-4.109c1.201,1.082 -4.892,4.23 -3.684,3.156c0.421,-0.374 13.207,-2.362 14.591,-2.649c14.74,-3.054 34.379,-4.593 49.217,-1.094c1.017,0.24 -6.009,2 -5.04,2.835c2.324,2.003 11.696,0.084 14.521,0.121c11.202,0.146 22.164,1.603 32.985,4.491c8.073,2.153 15.836,5.641 23.242,9.488c1.17,0.608 6.389,2.798 6.796,4.29c0.116,0.426 -9.329,-1.645 -5.11,1.295c4.409,3.071 10.515,3.987 15.4,6.089c10.353,4.456 21.911,11.166 30.228,18.856c1.367,1.264 2.605,2.686 3.78,4.126c0.874,1.072 1.719,2.164 2.589,3.238c0.684,0.844 1.384,1.711 1.996,2.61c0.273,0.401 0.516,0.817 0.762,1.235c2.34,3.969 -5.554,2.498 -3.661,6.636c3.596,7.861 9.731,14.672 14.164,22.072c4.348,7.258 7.296,15.844 9.172,24.076c0.689,3.024 -0.107,9.109 1.451,11.756c0.067,0.114 -0.919,-4.557 -1.189,-3.884c-2.949,7.374 -0.156,26.236 0.166,34.129c0.48,11.746 0.575,23.98 -0.594,35.692c-0.044,0.441 -1.052,9.911 -1.163,9.911c-1.829,0 -0.291,-6.89 -1.26,-5.339c-2.426,3.882 -2.675,13.003 -3.731,17.519c-2.426,10.382 -2.293,11.155 -4.419,21.082c-2.555,11.929 -12.072,13.413 -9.038,10.5c3.089,-2.966 -5.785,8.995 -6.836,10.51c-0.252,0.363 -3.879,8.702 -3.36,8.111l0,0Z" style="fill:#675348;"/><path d="M129.592,268.749c0.798,0.166 0.485,-1.458 0.861,-2.128c1.366,-2.44 1.998,-5.205 3.346,-7.645c3.506,-6.345 8.065,-14.358 14.816,-18.128c1.391,-0.776 4.398,-0.646 5.819,-0.765c5.167,-0.432 10.254,0.065 15.434,0.047c7.128,-0.024 14.388,-0.433 21.471,-1.019c4.75,-0.393 9.886,-1.705 14.706,-1.097c3.824,0.483 6.893,2.983 10.565,3.642c1.07,0.192 3.571,-0.973 4.127,-0.693c1.576,0.793 2.785,2.456 4.365,3.213c2.179,1.044 4.887,-2.941 6.927,-1.45l-0.541,0.043c0.239,-0.465 0.035,1.049 -0.045,1.563c-0.159,1.026 -0.346,2.161 -0.718,3.129c-1.191,3.09 -2.73,5.823 -4.713,8.497c-0.316,0.426 -1.436,2.177 -2.098,2.162l-0.12,1.056c0.018,-0.089 -1.607,-0.389 -1.692,-0.407c-1.931,-0.4 -3.877,-0.514 -5.838,-0.687c-7.794,-0.687 -15.651,-0.674 -23.429,-1.594c-6.905,-0.816 -13.884,-0.685 -20.818,-0.909c-10.398,-0.335 -20.778,-0.76 -30.202,3.768c-3.568,1.714 -10.133,4.607 -12.149,8.236" style="fill:#343333;"/><path d="M391.876,249.627c-0.269,-0.513 -2.226,-1.823 -2.716,-2.089c-1.232,-0.671 -2.367,-2.922 -3.29,-3.943c-1.791,-1.982 -3.93,-3.595 -6.159,-5.141c-6.677,-4.631 -13.381,-9.739 -21.83,-11.46c-5.024,-1.023 -10.11,0.068 -15.126,0.75c-8.262,1.121 -16.48,2.544 -24.695,3.939c-2.621,0.445 -4.99,0.995 -7.662,0.929c-2.644,-0.065 -5.496,-0.83 -8.11,-0.174c-3.272,0.822 -3.537,3.148 -5.912,4.576c-0.688,0.414 -2.054,-0.298 -2.702,-0.362c-2.644,-0.262 -3.162,1.422 -4.118,3.594c-0.206,0.466 -3.68,0.105 -4.132,0.066c-0.229,-0.02 -2.008,-0.236 -1.622,-0.427l-0.021,-0.15c-0.09,-0.665 0.653,1.196 1.077,1.735c0.844,1.072 1.653,2.133 2.622,3.114c2.292,2.322 4.865,4.223 6.878,6.733c0.375,0.468 1.928,1.621 1.996,2.126l1.023,-0.088c-0.314,0.042 0.569,-0.273 0.869,-0.372c0.644,-0.213 1.284,-0.422 1.935,-0.617c2.052,-0.613 4.009,-1.387 6.146,-1.704c6.085,-0.904 11.922,-3.099 17.964,-4.25c18.194,-3.464 34.447,-8.739 52.533,-3.49c3.522,1.022 6.955,2.336 10.221,3.902c0.614,0.294 2.889,0.987 3.194,1.517" style="fill:#343333;"/></g><g id="Layer3"><path d="M230.907,387.904c0,0 -2.706,-1.595 6.117,-0.2c3.074,0.486 17.583,-1.724 25.633,-2.643c8.049,-0.918 9,-0.297 10.701,-0.362c1.7,-0.065 5.686,-0.561 8.707,0.599c3.021,1.159 5.525,1.932 10.471,4.081c4.946,2.149 8.494,2.008 9.134,3.079c0.64,1.072 -11.761,2.521 -16.745,3.52c-4.985,0.998 -19.089,3.488 -25.814,1.987c-6.726,-1.5 -21.059,-5.9 -28.204,-10.061Z" style="fill:#be576f;"/><path d="M230.446,387.333c0,0 11.079,14.143 21.538,19.125c10.46,4.982 18.61,4.78 26.463,2.617c6.526,-1.797 9.925,-4.484 14.599,-8.799c3.549,-3.277 7.384,-6.052 8.557,-7.691c0.547,-0.764 -11.777,2.555 -19.839,3.774c-4.08,0.618 -13.654,2.585 -21.878,1.173c-8.225,-1.412 -29.44,-10.199 -29.44,-10.199Z" style="fill:#c66e83;"/></g></svg>