<?xml version="1.0" encoding="UTF-8" standalone="no"?>
<!-- Created with Inkscape (http://www.inkscape.org/) -->

<svg
   xmlns:dc="http://purl.org/dc/elements/1.1/"
   xmlns:cc="http://creativecommons.org/ns#"
   xmlns:rdf="http://www.w3.org/1999/02/22-rdf-syntax-ns#"
   xmlns:svg="http://www.w3.org/2000/svg"
   xmlns="http://www.w3.org/2000/svg"
   xmlns:sodipodi="http://sodipodi.sourceforge.net/DTD/sodipodi-0.dtd"
   xmlns:inkscape="http://www.inkscape.org/namespaces/inkscape"
   width="42.49752mm"
   height="49.999992mm"
   viewBox="0 0 42.49752 49.999992"
   version="1.1"
   id="svg6060"
   inkscape:version="0.92.3 (2405546, 2018-03-11)"
   sodipodi:docname="tea.svg">
  <defs
     id="defs6054" />
  <sodipodi:namedview
     id="base"
     pagecolor="#ffffff"
     bordercolor="#666666"
     borderopacity="1.0"
     inkscape:pageopacity="0.0"
     inkscape:pageshadow="2"
     inkscape:zoom="0.35"
     inkscape:cx="-5.3631765"
     inkscape:cy="-241.89838"
     inkscape:document-units="mm"
     inkscape:current-layer="layer1"
     showgrid="false"
     inkscape:window-width="1920"
     inkscape:window-height="1017"
     inkscape:window-x="-8"
     inkscape:window-y="-8"
     inkscape:window-maximized="1" />
  <metadata
     id="metadata6057">
    <rdf:RDF>
      <cc:Work
         rdf:about="">
        <dc:format>image/svg+xml</dc:format>
        <dc:type
           rdf:resource="http://purl.org/dc/dcmitype/StillImage" />
        <dc:title></dc:title>
      </cc:Work>
    </rdf:RDF>
  </metadata>
  <g
     inkscape:label="Layer 1"
     inkscape:groupmode="layer"
     id="layer1"
     transform="translate(15.589924,-34.831062)">
    <g
       transform="translate(-50.698107,-184.7251)"
       id="g6024">
      <path
         sodipodi:nodetypes="cscscssscc"
         inkscape:connector-curvature="0"
         id="rect4863-1"
         d="m 68.142969,245.99813 c -0.0851,-0.31961 -0.03775,1.70152 -0.18463,1.44392 -0.342864,-0.60137 0.619291,1.3462 0.458727,1.40479 2.086611,-0.21982 6.795816,-1.46686 6.890804,3.52745 0.08866,4.66149 -5.776806,7.54407 -9.164562,4.83305 -0.249964,-0.51247 0.415042,2.39361 0.494727,3.12272 0.01982,0.18124 -1.686925,0.0301 -1.518527,0.009 0,0 12.205255,3.3547 12.483159,-8.56144 0.179314,-7.68873 -7.639932,-5.50722 -9.459698,-5.77923 z"
         style="fill:#f2ddcb;fill-opacity:1;stroke-width:0.21003464" />
      <path
         sodipodi:nodetypes="ccssssssssssc"
         inkscape:connector-curvature="0"
         id="rect4863-6-3-8"
         d="m 60.525515,237.58742 c -0.01095,-0.32128 -0.152061,-0.5849 -0.709026,-0.60199 -0.2095,0.089 -1.386651,0.32014 -2.846792,3.25137 -1.44484,2.9005 -0.601693,7.18022 -1.718043,9.40304 -1.166678,2.32302 -2.994687,0.1313 -2.994687,0.1313 -0.08592,3.5e-4 -0.233161,0.51182 -0.226819,0.33758 0.0201,-0.55268 -0.451918,2.48592 -0.611809,3.2372 -0.03978,0.18676 -0.0026,0.33687 0.0833,0.33662 0,0 2.990149,1.41762 4.598552,-2.04003 1.556084,-3.34521 1.254562,-7.72906 1.880446,-9.91393 0.454389,-1.58623 1.582869,-3.03884 1.839043,-3.24522 0.413386,-0.33301 0.551991,-0.31951 0.705823,-0.89593 z"
         style="fill:#f9f9f9;fill-opacity:1;stroke-width:0.15117675" />
      <path
         sodipodi:nodetypes="ccssssssssssc"
         inkscape:connector-curvature="0"
         id="rect4863-6-3"
         d="m 46.349878,229.66942 c 0.06595,-0.35727 0.269078,-0.62891 0.899993,-0.55726 0.2214,0.1335 1.510241,0.58367 2.667641,4.09747 1.145278,3.47698 -0.519655,8.12265 0.368281,10.78873 0.927971,2.78628 3.355064,0.6346 3.355064,0.6346 0.09683,0.0144 0.177514,0.60998 0.199442,0.41423 0.06955,-0.62096 0.09478,2.85187 0.149718,3.71757 0.01367,0.2152 -0.05331,0.37689 -0.150114,0.36263 0,0 -3.608416,1.09721 -4.845162,-3.02908 -1.196514,-3.9921 -0.124969,-8.84237 -0.466161,-11.38616 -0.247706,-1.8468 -1.277839,-3.65406 -1.532279,-3.92644 -0.410587,-0.43951 -0.569136,-0.447 -0.646419,-1.11626 z"
         style="fill:#f9f9f9;fill-opacity:1;stroke-width:0.1715342" />
      <path
         d="m 71.856081,243.55449 a 18.373949,25.333778 0 0 1 -9.186975,21.93969 18.373949,25.333778 0 0 1 -18.373949,0 18.373949,25.333778 0 0 1 -9.186974,-21.93969 l 18.373949,0 z"
         sodipodi:end="3.1415927"
         sodipodi:start="0"
         sodipodi:ry="25.333778"
         sodipodi:rx="18.373949"
         sodipodi:cy="243.55449"
         sodipodi:cx="53.482132"
         sodipodi:type="arc"
         id="path5115"
         style="fill:#f2ddcb;fill-opacity:1;stroke-width:0.22817868" />
      <path
         transform="scale(1,-1)"
         d="m 65.647658,-269.55615 a 12.277022,8.0941935 0 0 1 -6.138511,7.00977 12.277022,8.0941935 0 0 1 -12.277023,0 12.277022,8.0941935 0 0 1 -6.13851,-7.00977 l 12.277022,0 z"
         sodipodi:end="3.1415927"
         sodipodi:start="0"
         sodipodi:ry="8.0941935"
         sodipodi:rx="12.277022"
         sodipodi:cy="-269.55615"
         sodipodi:cx="53.370636"
         sodipodi:type="arc"
         id="path5115-1"
         style="fill:#f2ddcb;fill-opacity:1;stroke-width:0.10542829" />
      <rect
         transform="rotate(14.499201)"
         ry="1.2895659"
         y="233.80995"
         x="99.305817"
         height="8.6419592"
         width="7.2016325"
         id="rect5240"
         style="fill:#954879;fill-opacity:1;stroke-width:0.1677471" />
      <rect
         ry="0.36791798"
         y="242.96095"
         x="40.462891"
         height="10.406824"
         width="0.73583597"
         id="rect5242"
         style="fill:#f9f9f9;fill-opacity:1;stroke-width:0.20812583" />
      <path
         sodipodi:nodetypes="sssssscsss"
         inkscape:connector-curvature="0"
         id="rect4863-6"
         d="m 53.459255,219.55989 c -1.312252,0.15307 0.220839,1.18715 -1.887823,2.77335 -0.678585,0.51046 -2.154516,1.72745 -1.878389,3.96485 0.395355,3.20346 4.257046,5.40339 4.477005,8.6179 0.134792,1.96985 -0.783207,3.02528 -0.857189,3.72351 -0.137477,1.29738 0.956411,1.77365 1.097655,1.41747 1.309139,-3.30133 1.714475,-3.69501 1.554778,-5.43052 -0.477168,-3.64735 -4.447049,-6.49499 -4.830872,-8.09479 -0.356356,-1.48532 0.438298,-2.57129 1.405008,-3.28566 2.063373,-1.52476 1.847466,-3.79428 0.919827,-3.68611 z"
         style="fill:#f9f9f9;fill-opacity:1;stroke-width:0.16489479" />
    </g>
  </g>
</svg>
