<?xml version="1.0" encoding="UTF-8" standalone="no"?>
<!-- Created with Inkscape (http://www.inkscape.org/) -->

<svg
   xmlns:dc="http://purl.org/dc/elements/1.1/"
   xmlns:cc="http://creativecommons.org/ns#"
   xmlns:rdf="http://www.w3.org/1999/02/22-rdf-syntax-ns#"
   xmlns:svg="http://www.w3.org/2000/svg"
   xmlns="http://www.w3.org/2000/svg"
   xmlns:sodipodi="http://sodipodi.sourceforge.net/DTD/sodipodi-0.dtd"
   xmlns:inkscape="http://www.inkscape.org/namespaces/inkscape"
   width="45.099102mm"
   height="50mm"
   viewBox="0 0 45.099102 50"
   version="1.1"
   id="svg6060"
   inkscape:version="0.92.3 (2405546, 2018-03-11)"
   sodipodi:docname="unicorn.svg">
  <defs
     id="defs6054" />
  <sodipodi:namedview
     id="base"
     pagecolor="#ffffff"
     bordercolor="#666666"
     borderopacity="1.0"
     inkscape:pageopacity="0.0"
     inkscape:pageshadow="2"
     inkscape:zoom="0.35"
     inkscape:cx="570.92966"
     inkscape:cy="-125.84775"
     inkscape:document-units="mm"
     inkscape:current-layer="layer1"
     showgrid="false"
     inkscape:window-width="1920"
     inkscape:window-height="1017"
     inkscape:window-x="-8"
     inkscape:window-y="-8"
     inkscape:window-maximized="1" />
  <metadata
     id="metadata6057">
    <rdf:RDF>
      <cc:Work
         rdf:about="">
        <dc:format>image/svg+xml</dc:format>
        <dc:type
           rdf:resource="http://purl.org/dc/dcmitype/StillImage" />
        <dc:title></dc:title>
      </cc:Work>
    </rdf:RDF>
  </metadata>
  <g
     inkscape:label="Layer 1"
     inkscape:groupmode="layer"
     id="layer1"
     transform="translate(168.0674,-65.536116)">
    <g
       id="g2053"
       transform="matrix(1.014442,0,0,1.014442,-206.93734,-133.56798)">
      <path
         sodipodi:nodetypes="csssscccccccc"
         inkscape:connector-curvature="0"
         id="path1884"
         d="m 50.380307,202.96416 c 0.766692,0.18916 1.562724,0.68289 1.605021,1.49943 0.05253,1.01414 -0.70652,1.23064 -0.701792,2.07545 0.0042,0.75147 0.79724,1.37874 0.818406,2.00814 0.03087,0.91794 -0.827422,1.65349 -0.825655,2.23709 0.0025,0.81122 0.888068,1.0383 0.863176,2.01044 -0.03101,0.66133 -1.101232,1.12851 -0.436823,2.30262 -0.259772,0.0818 -1.148354,-0.16466 -1.146103,-0.23757 -0.767016,-1.86168 -1.436904,-3.76346 -2.150507,-5.64417 -0.03687,-0.36589 0.06122,-0.73422 0.08608,-1.10149 l 0.485034,-4.25753 1.403168,-0.89241 z"
         style="fill:#ef58d3;fill-opacity:1;stroke:none;stroke-width:0.26458332px;stroke-linecap:butt;stroke-linejoin:miter;stroke-opacity:1" />
      <rect
         ry="0.27258649"
         y="224.05563"
         x="64.353455"
         height="21.502113"
         width="2.5790527"
         id="rect1703-0"
         style="fill:#f993e7;fill-opacity:1;stroke:none;stroke-width:0.3209573;stroke-linecap:round;stroke-linejoin:round;stroke-miterlimit:4;stroke-dasharray:none;stroke-dashoffset:0;stroke-opacity:1" />
      <path
         sodipodi:nodetypes="cssssssssc"
         inkscape:connector-curvature="0"
         id="rect1803"
         d="m 75.316529,214.49154 c 2.977071,0.59745 2.363186,3.16015 5.820363,7.54666 0.961802,1.22036 1.313456,4.63431 1.214567,6.21009 -0.112197,1.78785 0.70667,3.71763 0.315476,4.96468 -0.552746,1.762 -1.177165,2.96487 -1.342494,2.98525 -7.403431,0.91206 -4.938423,-16.21142 -13.112164,-17.67607 -0.163986,-0.0294 -0.118398,-0.30804 0,-0.42521 l 3.204509,-3.17112 c 0.118405,-0.11716 2.391656,-0.73696 3.899722,-0.43431 z"
         style="fill:#ef58d3;fill-opacity:1;stroke:none;stroke-width:0.23099966;stroke-linecap:round;stroke-linejoin:round;stroke-miterlimit:4;stroke-dasharray:none;stroke-dashoffset:0;stroke-opacity:1" />
      <path
         sodipodi:nodetypes="cccc"
         inkscape:connector-curvature="0"
         id="path1782"
         d="m 45.621025,202.9404 c 0.122974,-0.25472 0.663862,-1.9386 0.945954,-1.95947 0.28209,-0.0209 1.06486,1.5651 1.223976,1.79896 0.548131,1.43803 -1.931778,1.72316 -2.16993,0.16051 z"
         inkscape:transform-center-y="-0.54171823"
         inkscape:transform-center-x="-0.092401777"
         style="fill:#ffa2ee;fill-opacity:1;stroke:none;stroke-width:0.26973259;stroke-linecap:round;stroke-linejoin:round;stroke-miterlimit:4;stroke-dasharray:none;stroke-dashoffset:0;stroke-opacity:1" />
      <path
         transform="scale(1,-1)"
         d="m 43.323153,-223.35193 a 14.156205,3.5117526 0 0 1 14.156206,-3.51175 14.156205,3.5117526 0 0 1 14.156205,3.51175 H 57.479359 Z"
         sodipodi:end="0"
         sodipodi:start="3.1415927"
         sodipodi:ry="3.5117526"
         sodipodi:rx="14.156205"
         sodipodi:cy="-223.35193"
         sodipodi:cx="57.479359"
         sodipodi:type="arc"
         id="path1801"
         style="fill:#f993e7;fill-opacity:1;stroke:none;stroke-width:0.22989851;stroke-linecap:round;stroke-linejoin:round;stroke-miterlimit:4;stroke-dasharray:none;stroke-dashoffset:0;stroke-opacity:1" />
      <rect
         ry="0.26236227"
         y="214.67912"
         x="43.297665"
         height="10.377901"
         width="28.33057"
         id="rect1697"
         style="fill:#ffa2ee;fill-opacity:1;stroke:none;stroke-width:0.34095174;stroke-linecap:round;stroke-linejoin:round;stroke-miterlimit:4;stroke-dasharray:none;stroke-dashoffset:0;stroke-opacity:1" />
      <rect
         ry="0.30067778"
         y="202.96416"
         x="43.297665"
         height="19.377041"
         width="7.0826426"
         id="rect1699"
         style="fill:#ffa2ee;fill-opacity:1;stroke:none;stroke-width:0.36500001;stroke-linecap:round;stroke-linejoin:round;stroke-miterlimit:4;stroke-dasharray:none;stroke-dashoffset:0;stroke-opacity:1" />
      <path
         transform="matrix(1.2384071,1.6075614,0.17145028,2.1448589,-24.400546,-283.85359)"
         inkscape:transform-center-y="-2.7383532"
         inkscape:transform-center-x="0.52610655"
         d="m 28.064731,206.42744 c -0.06138,0.0573 -1.147216,1.17019 -1.227514,1.14568 -0.0803,-0.0245 -0.359509,-1.5541 -0.37843,-1.6359 -0.01892,-0.0818 -0.439807,-1.57861 -0.378431,-1.6359 0.06138,-0.0573 1.525647,0.46571 1.605944,0.49022 0.0803,0.0245 1.587023,0.40843 1.605945,0.49022 0.01892,0.0818 -1.166138,1.0884 -1.227514,1.14568 z"
         inkscape:randomized="0"
         inkscape:rounded="0.05"
         inkscape:flatsided="false"
         sodipodi:arg2="1.8670648"
         sodipodi:arg1="0.81986726"
         sodipodi:r2="1.9388556"
         sodipodi:r1="0.96942782"
         sodipodi:cy="205.71873"
         sodipodi:cx="27.403273"
         sodipodi:sides="3"
         id="path1810"
         style="fill:#fbe259;fill-opacity:1;stroke:none;stroke-width:0.23100001;stroke-linecap:round;stroke-linejoin:round;stroke-miterlimit:4;stroke-dasharray:none;stroke-dashoffset:0;stroke-opacity:1"
         sodipodi:type="star" />
      <rect
         ry="0.35109344"
         y="202.96416"
         x="38.31657"
         height="5.3054209"
         width="12.063731"
         id="rect1701"
         style="fill:#ffa2ee;fill-opacity:1;stroke:none;stroke-width:0.4017677;stroke-linecap:round;stroke-linejoin:round;stroke-miterlimit:4;stroke-dasharray:none;stroke-dashoffset:0;stroke-opacity:1" />
      <rect
         ry="0.27258649"
         y="224.05563"
         x="69.049179"
         height="21.502113"
         width="2.5790527"
         id="rect1703"
         style="fill:#ffa2ee;fill-opacity:1;stroke:none;stroke-width:0.3209573;stroke-linecap:round;stroke-linejoin:round;stroke-miterlimit:4;stroke-dasharray:none;stroke-dashoffset:0;stroke-opacity:1" />
      <path
         inkscape:connector-curvature="0"
         id="rect1703-0-3"
         d="m 43.628804,222.55774 h 2.050346 c 0.172958,0 0.312198,0.0602 0.312198,0.13486 v 10.3678 c 0,0.0746 -0.13924,0.13486 -0.312198,0.13486 h -2.050346 c -0.172958,0 -0.312198,-0.0602 -0.312198,-0.13486 v -10.3678 c 0,-0.0746 0.13924,-0.13486 0.312198,-0.13486 z"
         style="fill:#ffa2ee;fill-opacity:1;stroke:none;stroke-width:0.22989929;stroke-linecap:round;stroke-linejoin:round;stroke-miterlimit:4;stroke-dasharray:none;stroke-dashoffset:0;stroke-opacity:1" />
      <path
         id="rect1703-0-3-3"
         d="m 55.635556,233.26635 v 1.86409 c 0,0.15724 -0.05511,0.28384 -0.123566,0.28384 h -9.499897 c -0.06845,0 -0.123565,-0.1266 -0.123565,-0.28384 v -1.86409 c 0,-0.15725 0.05511,-0.28384 0.123565,-0.28384 h 9.499897 c 0.06845,0 0.123566,0.12659 0.123566,0.28384 z"
         style="fill:#ffa2ee;fill-opacity:1;stroke:none;stroke-width:0.20997141;stroke-linecap:round;stroke-linejoin:round;stroke-miterlimit:4;stroke-dasharray:none;stroke-dashoffset:0;stroke-opacity:1"
         inkscape:connector-curvature="0" />
      <path
         transform="rotate(-90)"
         d="m -232.97929,48.689852 a 2.4311986,2.6849999 0 0 1 -2.24614,-1.657495 2.4311986,2.6849999 0 0 1 0.52702,-2.926086 2.4311986,2.6849999 0 0 1 2.6495,-0.582035 2.4311986,2.6849999 0 0 1 1.50081,2.480616 h -2.43119 z"
         sodipodi:end="0"
         sodipodi:start="1.5707963"
         sodipodi:ry="2.6849999"
         sodipodi:rx="2.4311986"
         sodipodi:cy="46.004852"
         sodipodi:cx="-232.97929"
         sodipodi:type="arc"
         id="path1778"
         style="fill:#ffa2ee;fill-opacity:1;stroke:none;stroke-width:0.27126753;stroke-linecap:round;stroke-linejoin:round;stroke-miterlimit:4;stroke-dasharray:none;stroke-dashoffset:0;stroke-opacity:1" />
      <path
         sodipodi:nodetypes="cccc"
         inkscape:connector-curvature="0"
         id="path1782-0"
         d="m 49.513105,200.63292 c 0.279326,0.0446 0.676255,1.76808 0.777306,2.03229 0.91,2.83197 -5.214559,3.74475 -2.148659,-0.34298 0.178272,-0.21963 1.092034,-1.7339 1.371353,-1.68931 z"
         inkscape:transform-center-y="-0.15545014"
         inkscape:transform-center-x="0.32538463"
         style="fill:#ffa2ee;fill-opacity:1;stroke:none;stroke-width:0.26973259;stroke-linecap:round;stroke-linejoin:round;stroke-miterlimit:4;stroke-dasharray:none;stroke-dashoffset:0;stroke-opacity:1" />
      <path
         transform="rotate(-32,66.267159,229.89127)"
         inkscape:transform-center-y="-0.94547787"
         inkscape:transform-center-x="0.72793521"
         d="m 63.64174,211.62462 c -1.044367,1.63617 -1.977844,-0.68083 -3.873273,-0.26236 -1.895428,0.41848 -1.766595,2.91312 -3.402769,1.86876 -1.636174,-1.04437 0.680824,-1.97785 0.262352,-3.87328 -0.418471,-1.89543 -2.913117,-1.76659 -1.868751,-3.40277 1.044367,-1.63617 1.977844,0.68083 3.873273,0.26236 1.895428,-0.41848 1.766595,-2.91312 3.402769,-1.86876 1.636174,1.04437 -0.680824,1.97785 -0.262352,3.87328 0.418471,1.89543 2.913117,1.76659 1.868751,3.40277 z"
         inkscape:randomized="0"
         inkscape:rounded="0.5"
         inkscape:flatsided="false"
         sodipodi:arg2="1.3535029"
         sodipodi:arg1="0.56810473"
         sodipodi:r2="2.6344187"
         sodipodi:r1="5.2688375"
         sodipodi:cy="208.78979"
         sodipodi:cx="59.20052"
         sodipodi:sides="4"
         id="path1812"
         style="fill:#ffa2ee;fill-opacity:1;stroke:none;stroke-width:0.23100001;stroke-linecap:round;stroke-linejoin:round;stroke-miterlimit:4;stroke-dasharray:none;stroke-dashoffset:0;stroke-opacity:1"
         sodipodi:type="star" />
      <path
         d="m 44.996135,204.99246 a 0.81851292,1.1693041 0 0 1 0.818513,-1.1693 0.81851292,1.1693041 0 0 1 0.818513,1.1693 h -0.818513 z"
         sodipodi:end="0"
         sodipodi:start="3.1415927"
         sodipodi:ry="1.1693041"
         sodipodi:rx="0.81851292"
         sodipodi:cy="204.99246"
         sodipodi:cx="45.814648"
         sodipodi:type="arc"
         id="path1838"
         style="fill:#ef58d3;fill-opacity:1;stroke:none;stroke-width:0.05;stroke-linecap:round;stroke-linejoin:round;stroke-miterlimit:4;stroke-dasharray:none;stroke-dashoffset:0;stroke-opacity:1" />
      <rect
         ry="0.27258649"
         y="224.05563"
         x="47.949272"
         height="21.502113"
         width="2.5790527"
         id="rect1703-4"
         style="fill:#ffa2ee;fill-opacity:1;stroke:none;stroke-width:0.3209573;stroke-linecap:round;stroke-linejoin:round;stroke-miterlimit:4;stroke-dasharray:none;stroke-dashoffset:0;stroke-opacity:1" />
      <rect
         ry="0.28193343"
         y="243.71452"
         x="47.949272"
         height="1.8432289"
         width="2.5577965"
         id="rect1840"
         style="fill:#ef58d3;fill-opacity:1;stroke:none;stroke-width:0.04841642;stroke-linecap:round;stroke-linejoin:round;stroke-miterlimit:4;stroke-dasharray:none;stroke-dashoffset:0;stroke-opacity:1" />
      <rect
         ry="0.28193346"
         y="243.71452"
         x="69.070435"
         height="1.8432291"
         width="2.5577965"
         id="rect1840-2"
         style="fill:#ef58d3;fill-opacity:1;stroke:none;stroke-width:0.04841642;stroke-linecap:round;stroke-linejoin:round;stroke-miterlimit:4;stroke-dasharray:none;stroke-dashoffset:0;stroke-opacity:1" />
      <rect
         ry="0.28193346"
         y="243.71452"
         x="64.353455"
         height="1.8432291"
         width="2.5577965"
         id="rect1840-23"
         style="fill:#ef58d3;fill-opacity:1;stroke:none;stroke-width:0.04841642;stroke-linecap:round;stroke-linejoin:round;stroke-miterlimit:4;stroke-dasharray:none;stroke-dashoffset:0;stroke-opacity:1" />
      <rect
         transform="rotate(-90)"
         ry="0.30067781"
         y="54.481201"
         x="-235.41222"
         height="1.9657762"
         width="2.4371066"
         id="rect1840-1"
         style="fill:#ef58d3;fill-opacity:1;stroke:none;stroke-width:0.04880613;stroke-linecap:round;stroke-linejoin:round;stroke-miterlimit:4;stroke-dasharray:none;stroke-dashoffset:0;stroke-opacity:1" />
    </g>
  </g>
</svg>
